<svg width="320" height="45" viewBox="0 0 320 45" fill="none" xmlns="http://www.w3.org/2000/svg">
<mask id="path-1-outside-1_235_3187" maskUnits="userSpaceOnUse" x="-1" y="0" width="322" height="45" fill="black">
<rect fill="white" x="-1" width="322" height="45"/>
<path d="M9.5128 43.4069V7.93931H0V1.5931H24.0572V7.93931H14.5444V43.4069H9.5128ZM27.2449 43.4069V1.5931H32.2765V19.0303H46.5457V1.5931H51.5772V43.4069H46.5457V25.3766H32.2765V43.4069H27.2449ZM57.648 43.4069V1.5931H76.084V7.64276H62.483V19.149H75.2192V25.1986H62.483V37.3572H76.084V43.4069H57.648ZM91.7766 43.4069V1.5931H95.9827L105.81 28.9352L115.598 1.5931H119.725V43.4069H115.166V15.2345L107.225 37.0607H104.277L96.3365 15.3531V43.4069H91.7766ZM138.246 44C135.573 44 133.228 43.1103 131.21 41.331C129.218 39.5517 127.672 37.0607 126.572 33.8579C125.471 30.6156 124.921 26.8198 124.921 22.4703C124.921 18.0814 125.471 14.2855 126.572 11.0828C127.672 7.88 129.218 5.40874 131.21 3.66897C133.202 1.88966 135.547 1 138.246 1C140.946 1 143.291 1.88966 145.283 3.66897C147.274 5.40874 148.821 7.88 149.921 11.0828C151.022 14.2855 151.572 18.0616 151.572 22.411C151.572 26.8 151.022 30.6156 149.921 33.8579C148.821 37.0607 147.274 39.5517 145.283 41.331C143.291 43.1103 140.946 44 138.246 44ZM138.246 37.4759C140.788 37.4759 142.767 36.1513 144.182 33.5021C145.597 30.8529 146.305 27.1756 146.305 22.4703C146.305 17.7255 145.597 14.0483 144.182 11.4386C142.793 8.82897 140.815 7.52414 138.246 7.52414C135.704 7.52414 133.726 8.82897 132.311 11.4386C130.896 14.0483 130.188 17.7255 130.188 22.4703C130.188 27.1756 130.896 30.8529 132.311 33.5021C133.726 36.1513 135.704 37.4759 138.246 37.4759ZM164.881 43.4069L152.538 1.5931H157.924L167.083 33.68L176.242 1.5931H181.431L169.087 43.4069H164.881ZM184.021 43.4069V1.5931H202.457V7.64276H188.856V19.149H201.592V25.1986H188.856V37.3572H202.457V43.4069H184.021ZM216.891 43.4069V37.8317L231.514 7.93931H216.891V1.5931H237.411V7.16828L222.788 37.0607H238V43.4069H216.891ZM253.717 44C251.044 44 248.698 43.1103 246.681 41.331C244.689 39.5517 243.143 37.0607 242.042 33.8579C240.941 30.6156 240.391 26.8198 240.391 22.4703C240.391 18.0814 240.941 14.2855 242.042 11.0828C243.143 7.88 244.689 5.40874 246.681 3.66897C248.672 1.88966 251.018 1 253.717 1C256.416 1 258.762 1.88966 260.753 3.66897C262.745 5.40874 264.291 7.88 265.392 11.0828C266.492 14.2855 267.043 18.0616 267.043 22.411C267.043 26.8 266.492 30.6156 265.392 33.8579C264.291 37.0607 262.745 39.5517 260.753 41.331C258.762 43.1103 256.416 44 253.717 44ZM253.717 37.4759C256.259 37.4759 258.237 36.1513 259.653 33.5021C261.068 30.8529 261.775 27.1756 261.775 22.4703C261.775 17.7255 261.068 14.0483 259.653 11.4386C258.264 8.82897 256.285 7.52414 253.717 7.52414C251.175 7.52414 249.196 8.82897 247.781 11.4386C246.366 14.0483 245.658 17.7255 245.658 22.4703C245.658 27.1756 246.366 30.8529 247.781 33.5021C249.196 36.1513 251.175 37.4759 253.717 37.4759ZM272.159 43.4069V1.5931H275.933L290.831 30.7738V1.5931H295.509V43.4069H291.774L276.837 14.1076V43.4069H272.159ZM301.564 43.4069V1.5931H320V7.64276H306.399V19.149H319.135V25.1986H306.399V37.3572H320V43.4069H301.564Z"/>
</mask>
<path d="M9.5128 43.4069H8.5128V44.4069H9.5128V43.4069ZM9.5128 7.93931H10.5128V6.93931H9.5128V7.93931ZM0 7.93931H-1V8.93931H0V7.93931ZM0 1.5931V0.593103H-1V1.5931H0ZM24.0572 1.5931H25.0572V0.593103H24.0572V1.5931ZM24.0572 7.93931V8.93931H25.0572V7.93931H24.0572ZM14.5444 7.93931V6.93931H13.5444V7.93931H14.5444ZM14.5444 43.4069V44.4069H15.5444V43.4069H14.5444ZM27.2449 43.4069H26.2449V44.4069H27.2449V43.4069ZM27.2449 1.5931V0.593103H26.2449V1.5931H27.2449ZM32.2765 1.5931H33.2765V0.593103H32.2765V1.5931ZM32.2765 19.0303H31.2765V20.0303H32.2765V19.0303ZM46.5457 19.0303V20.0303H47.5457V19.0303H46.5457ZM46.5457 1.5931V0.593103H45.5457V1.5931H46.5457ZM51.5772 1.5931H52.5772V0.593103H51.5772V1.5931ZM51.5772 43.4069V44.4069H52.5772V43.4069H51.5772ZM46.5457 43.4069H45.5457V44.4069H46.5457V43.4069ZM46.5457 25.3766H47.5457V24.3766H46.5457V25.3766ZM32.2765 25.3766V24.3766H31.2765V25.3766H32.2765ZM32.2765 43.4069V44.4069H33.2765V43.4069H32.2765ZM57.648 43.4069H56.648V44.4069H57.648V43.4069ZM57.648 1.5931V0.593103H56.648V1.5931H57.648ZM76.084 1.5931H77.084V0.593103H76.084V1.5931ZM76.084 7.64276V8.64276H77.084V7.64276H76.084ZM62.483 7.64276V6.64276H61.483V7.64276H62.483ZM62.483 19.149H61.483V20.149H62.483V19.149ZM75.2192 19.149H76.2192V18.149H75.2192V19.149ZM75.2192 25.1986V26.1986H76.2192V25.1986H75.2192ZM62.483 25.1986V24.1986H61.483V25.1986H62.483ZM62.483 37.3572H61.483V38.3572H62.483V37.3572ZM76.084 37.3572H77.084V36.3572H76.084V37.3572ZM76.084 43.4069V44.4069H77.084V43.4069H76.084ZM91.7766 43.4069H90.7766V44.4069H91.7766V43.4069ZM91.7766 1.5931V0.593103H90.7766V1.5931H91.7766ZM95.9827 1.5931L96.9237 1.25487L96.6859 0.593103H95.9827V1.5931ZM105.81 28.9352L104.869 29.2734L105.812 31.8969L106.751 29.2722L105.81 28.9352ZM115.598 1.5931V0.593103H114.894L114.656 1.25607L115.598 1.5931ZM119.725 1.5931H120.725V0.593103H119.725V1.5931ZM119.725 43.4069V44.4069H120.725V43.4069H119.725ZM115.166 43.4069H114.166V44.4069H115.166V43.4069ZM115.166 15.2345H116.166L114.226 14.8926L115.166 15.2345ZM107.225 37.0607V38.0607H107.925L108.165 37.4026L107.225 37.0607ZM104.277 37.0607L103.338 37.4042L103.578 38.0607H104.277V37.0607ZM96.3365 15.3531L97.2756 15.0096L95.3365 15.3531H96.3365ZM96.3365 43.4069V44.4069H97.3365V43.4069H96.3365ZM131.21 41.331L130.544 42.0768L130.549 42.0811L131.21 41.331ZM126.572 33.8579L125.625 34.1794L125.626 34.1829L126.572 33.8579ZM126.572 11.0828L127.517 11.4078L126.572 11.0828ZM131.21 3.66897L131.868 4.42214L131.876 4.41471L131.21 3.66897ZM145.283 3.66897L144.616 4.41476L144.625 4.42209L145.283 3.66897ZM149.921 11.0828L150.867 10.7578V10.7578L149.921 11.0828ZM149.921 33.8579L150.867 34.1829L150.868 34.1794L149.921 33.8579ZM145.283 41.331L145.949 42.0768L145.283 41.331ZM144.182 33.5021L143.3 33.0309L144.182 33.5021ZM144.182 11.4386L143.299 11.9085L143.303 11.9153L144.182 11.4386ZM132.311 11.4386L131.432 10.9619L132.311 11.4386ZM132.311 33.5021L133.193 33.0309L132.311 33.5021ZM164.881 43.4069L163.922 43.69L164.134 44.4069H164.881V43.4069ZM152.538 1.5931V0.593103H151.2L151.579 1.87622L152.538 1.5931ZM157.924 1.5931L158.885 1.31862L158.678 0.593103H157.924V1.5931ZM167.083 33.68L166.121 33.9545L167.083 37.3232L168.044 33.9545L167.083 33.68ZM176.242 1.5931V0.593103H175.487L175.28 1.31862L176.242 1.5931ZM181.431 1.5931L182.39 1.87622L182.768 0.593103H181.431V1.5931ZM169.087 43.4069V44.4069H169.835L170.047 43.69L169.087 43.4069ZM184.021 43.4069H183.021V44.4069H184.021V43.4069ZM184.021 1.5931V0.593103H183.021V1.5931H184.021ZM202.457 1.5931H203.457V0.593103H202.457V1.5931ZM202.457 7.64276V8.64276H203.457V7.64276H202.457ZM188.856 7.64276V6.64276H187.856V7.64276H188.856ZM188.856 19.149H187.856V20.149H188.856V19.149ZM201.592 19.149H202.592V18.149H201.592V19.149ZM201.592 25.1986V26.1986H202.592V25.1986H201.592ZM188.856 25.1986V24.1986H187.856V25.1986H188.856ZM188.856 37.3572H187.856V38.3572H188.856V37.3572ZM202.457 37.3572H203.457V36.3572H202.457V37.3572ZM202.457 43.4069V44.4069H203.457V43.4069H202.457ZM216.891 43.4069H215.891V44.4069H216.891V43.4069ZM216.891 37.8317L215.993 37.3923L215.891 37.6002V37.8317H216.891ZM231.514 7.93931L232.413 8.37874L233.117 6.93931H231.514V7.93931ZM216.891 7.93931H215.891V8.93931H216.891V7.93931ZM216.891 1.5931V0.593103H215.891V1.5931H216.891ZM237.411 1.5931H238.411V0.593103H237.411V1.5931ZM237.411 7.16828L238.309 7.6077L238.411 7.39976V7.16828H237.411ZM222.788 37.0607L221.889 36.6213L221.185 38.0607H222.788V37.0607ZM238 37.0607H239V36.0607H238V37.0607ZM238 43.4069V44.4069H239V43.4069H238ZM246.681 41.331L246.014 42.0768L246.019 42.0811L246.681 41.331ZM242.042 33.8579L241.095 34.1794L241.096 34.1829L242.042 33.8579ZM242.042 11.0828L242.988 11.4078L242.042 11.0828ZM246.681 3.66897L247.338 4.42214L247.347 4.41471L246.681 3.66897ZM260.753 3.66897L260.087 4.41476L260.095 4.42209L260.753 3.66897ZM265.392 11.0828L266.337 10.7578V10.7578L265.392 11.0828ZM265.392 33.8579L266.337 34.1829L266.339 34.1794L265.392 33.8579ZM260.753 41.331L261.419 42.0768L260.753 41.331ZM259.653 33.5021L258.771 33.0309L259.653 33.5021ZM259.653 11.4386L258.77 11.9085L258.773 11.9153L259.653 11.4386ZM247.781 11.4386L246.902 10.9619L247.781 11.4386ZM247.781 33.5021L248.663 33.0309L247.781 33.5021ZM272.159 43.4069H271.159V44.4069H272.159V43.4069ZM272.159 1.5931V0.593103H271.159V1.5931H272.159ZM275.933 1.5931L276.823 1.13839L276.545 0.593103H275.933V1.5931ZM290.831 30.7738L289.94 31.2285L291.831 30.7738H290.831ZM290.831 1.5931V0.593103H289.831V1.5931H290.831ZM295.509 1.5931H296.509V0.593103H295.509V1.5931ZM295.509 43.4069V44.4069H296.509V43.4069H295.509ZM291.774 43.4069L290.883 43.8611L291.162 44.4069H291.774V43.4069ZM276.837 14.1076L277.728 13.6534L275.837 14.1076H276.837ZM276.837 43.4069V44.4069H277.837V43.4069H276.837ZM301.564 43.4069H300.564V44.4069H301.564V43.4069ZM301.564 1.5931V0.593103H300.564V1.5931H301.564ZM320 1.5931H321V0.593103H320V1.5931ZM320 7.64276V8.64276H321V7.64276H320ZM306.399 7.64276V6.64276H305.399V7.64276H306.399ZM306.399 19.149H305.399V20.149H306.399V19.149ZM319.135 19.149H320.135V18.149H319.135V19.149ZM319.135 25.1986V26.1986H320.135V25.1986H319.135ZM306.399 25.1986V24.1986H305.399V25.1986H306.399ZM306.399 37.3572H305.399V38.3572H306.399V37.3572ZM320 37.3572H321V36.3572H320V37.3572ZM320 43.4069V44.4069H321V43.4069H320ZM10.5128 43.4069V7.93931H8.5128V43.4069H10.5128ZM9.5128 6.93931H0V8.93931H9.5128V6.93931ZM1 7.93931V1.5931H-1V7.93931H1ZM0 2.5931H24.0572V0.593103H0V2.5931ZM23.0572 1.5931V7.93931H25.0572V1.5931H23.0572ZM24.0572 6.93931H14.5444V8.93931H24.0572V6.93931ZM13.5444 7.93931V43.4069H15.5444V7.93931H13.5444ZM14.5444 42.4069H9.5128V44.4069H14.5444V42.4069ZM28.2449 43.4069V1.5931H26.2449V43.4069H28.2449ZM27.2449 2.5931H32.2765V0.593103H27.2449V2.5931ZM31.2765 1.5931V19.0303H33.2765V1.5931H31.2765ZM32.2765 20.0303H46.5457V18.0303H32.2765V20.0303ZM47.5457 19.0303V1.5931H45.5457V19.0303H47.5457ZM46.5457 2.5931H51.5772V0.593103H46.5457V2.5931ZM50.5772 1.5931V43.4069H52.5772V1.5931H50.5772ZM51.5772 42.4069H46.5457V44.4069H51.5772V42.4069ZM47.5457 43.4069V25.3766H45.5457V43.4069H47.5457ZM46.5457 24.3766H32.2765V26.3766H46.5457V24.3766ZM31.2765 25.3766V43.4069H33.2765V25.3766H31.2765ZM32.2765 42.4069H27.2449V44.4069H32.2765V42.4069ZM58.648 43.4069V1.5931H56.648V43.4069H58.648ZM57.648 2.5931H76.084V0.593103H57.648V2.5931ZM75.084 1.5931V7.64276H77.084V1.5931H75.084ZM76.084 6.64276H62.483V8.64276H76.084V6.64276ZM61.483 7.64276V19.149H63.483V7.64276H61.483ZM62.483 20.149H75.2192V18.149H62.483V20.149ZM74.2192 19.149V25.1986H76.2192V19.149H74.2192ZM75.2192 24.1986H62.483V26.1986H75.2192V24.1986ZM61.483 25.1986V37.3572H63.483V25.1986H61.483ZM62.483 38.3572H76.084V36.3572H62.483V38.3572ZM75.084 37.3572V43.4069H77.084V37.3572H75.084ZM76.084 42.4069H57.648V44.4069H76.084V42.4069ZM92.7766 43.4069V1.5931H90.7766V43.4069H92.7766ZM91.7766 2.5931H95.9827V0.593103H91.7766V2.5931ZM95.0416 1.93134L104.869 29.2734L106.751 28.5969L96.9237 1.25487L95.0416 1.93134ZM106.751 29.2722L116.539 1.93014L114.656 1.25607L104.868 28.5981L106.751 29.2722ZM115.598 2.5931H119.725V0.593103H115.598V2.5931ZM118.725 1.5931V43.4069H120.725V1.5931H118.725ZM119.725 42.4069H115.166V44.4069H119.725V42.4069ZM116.166 43.4069V15.2345H114.166V43.4069H116.166ZM114.226 14.8926L106.285 36.7188L108.165 37.4026L116.105 15.5764L114.226 14.8926ZM107.225 36.0607H104.277V38.0607H107.225V36.0607ZM105.216 36.7172L97.2756 15.0096L95.3973 15.6966L103.338 37.4042L105.216 36.7172ZM95.3365 15.3531V43.4069H97.3365V15.3531H95.3365ZM96.3365 42.4069H91.7766V44.4069H96.3365V42.4069ZM138.246 43C135.819 43 133.708 42.2004 131.871 40.581L130.549 42.0811C132.748 44.0203 135.328 45 138.246 45V43ZM131.876 40.5853C130.042 38.9466 128.577 36.6164 127.517 33.5329L125.626 34.1829C126.768 37.505 128.395 40.1568 130.544 42.0768L131.876 40.5853ZM127.519 33.5365C126.461 30.4214 125.921 26.7386 125.921 22.4703H123.921C123.921 26.901 124.481 30.8099 125.625 34.1794L127.519 33.5365ZM125.921 22.4703C125.921 18.161 126.461 14.4802 127.517 11.4078L125.626 10.7578C124.48 14.0909 123.921 18.0018 123.921 22.4703H125.921ZM127.517 11.4078C128.577 8.32494 130.04 6.01881 131.868 4.42209L130.552 2.91584C128.397 4.79866 126.768 7.43506 125.626 10.7578L127.517 11.4078ZM131.876 4.41471C133.683 2.80107 135.79 2 138.246 2V0C135.304 0 132.721 0.978245 130.544 2.92322L131.876 4.41471ZM138.246 2C140.703 2 142.81 2.80107 144.617 4.41471L145.949 2.92322C143.772 0.978245 141.189 0 138.246 0V2ZM144.625 4.42209C146.453 6.01881 147.916 8.32494 148.975 11.4078L150.867 10.7578C149.725 7.43506 148.096 4.79866 145.941 2.91584L144.625 4.42209ZM148.975 11.4078C150.032 14.481 150.572 18.1424 150.572 22.411H152.572C152.572 17.9809 152.012 14.09 150.867 10.7578L148.975 11.4078ZM150.572 22.411C150.572 26.7199 150.031 30.4222 148.974 33.5365L150.868 34.1794C152.012 30.8091 152.572 26.8801 152.572 22.411H150.572ZM148.975 33.5329C147.916 36.6164 146.451 38.9466 144.617 40.5853L145.949 42.0768C148.098 40.1568 149.725 37.505 150.867 34.1829L148.975 33.5329ZM144.617 40.5853C142.81 42.1989 140.703 43 138.246 43V45C141.189 45 143.772 44.0218 145.949 42.0768L144.617 40.5853ZM138.246 38.4759C141.232 38.4759 143.513 36.8768 145.064 33.9732L143.3 33.0309C142.021 35.4257 140.345 36.4759 138.246 36.4759V38.4759ZM145.064 33.9732C146.588 31.1195 147.305 27.2558 147.305 22.4703H145.305C145.305 27.0955 144.606 30.5862 143.3 33.0309L145.064 33.9732ZM147.305 22.4703C147.305 17.6485 146.589 13.7803 145.061 10.9619L143.303 11.9153C144.605 14.3162 145.305 17.8026 145.305 22.4703H147.305ZM145.065 10.9688C143.534 8.09275 141.247 6.52414 138.246 6.52414V8.52414C140.382 8.52414 142.052 9.56518 143.299 11.9084L145.065 10.9688ZM138.246 6.52414C135.269 6.52414 132.986 8.09504 131.432 10.9619L133.19 11.9153C134.465 9.56289 136.14 8.52414 138.246 8.52414V6.52414ZM131.432 10.9619C129.903 13.7803 129.188 17.6485 129.188 22.4703H131.188C131.188 17.8026 131.888 14.3162 133.19 11.9153L131.432 10.9619ZM129.188 22.4703C129.188 27.2558 129.904 31.1195 131.429 33.9732L133.193 33.0309C131.887 30.5862 131.188 27.0955 131.188 22.4703H129.188ZM131.429 33.9732C132.98 36.8768 135.261 38.4759 138.246 38.4759V36.4759C136.148 36.4759 134.472 35.4257 133.193 33.0309L131.429 33.9732ZM165.84 43.1238L153.497 1.30999L151.579 1.87622L163.922 43.69L165.84 43.1238ZM152.538 2.5931H157.924V0.593103H152.538V2.5931ZM156.962 1.86758L166.121 33.9545L168.044 33.4055L158.885 1.31862L156.962 1.86758ZM168.044 33.9545L177.203 1.86758L175.28 1.31862L166.121 33.4055L168.044 33.9545ZM176.242 2.5931H181.431V0.593103H176.242V2.5931ZM180.471 1.30999L168.128 43.1238L170.047 43.69L182.39 1.87622L180.471 1.30999ZM169.087 42.4069H164.881V44.4069H169.087V42.4069ZM185.021 43.4069V1.5931H183.021V43.4069H185.021ZM184.021 2.5931H202.457V0.593103H184.021V2.5931ZM201.457 1.5931V7.64276H203.457V1.5931H201.457ZM202.457 6.64276H188.856V8.64276H202.457V6.64276ZM187.856 7.64276V19.149H189.856V7.64276H187.856ZM188.856 20.149H201.592V18.149H188.856V20.149ZM200.592 19.149V25.1986H202.592V19.149H200.592ZM201.592 24.1986H188.856V26.1986H201.592V24.1986ZM187.856 25.1986V37.3572H189.856V25.1986H187.856ZM188.856 38.3572H202.457V36.3572H188.856V38.3572ZM201.457 37.3572V43.4069H203.457V37.3572H201.457ZM202.457 42.4069H184.021V44.4069H202.457V42.4069ZM217.891 43.4069V37.8317H215.891V43.4069H217.891ZM217.79 38.2712L232.413 8.37874L230.616 7.49988L215.993 37.3923L217.79 38.2712ZM231.514 6.93931H216.891V8.93931H231.514V6.93931ZM217.891 7.93931V1.5931H215.891V7.93931H217.891ZM216.891 2.5931H237.411V0.593103H216.891V2.5931ZM236.411 1.5931V7.16828H238.411V1.5931H236.411ZM236.512 6.72885L221.889 36.6213L223.686 37.5001L238.309 7.6077L236.512 6.72885ZM222.788 38.0607H238V36.0607H222.788V38.0607ZM237 37.0607V43.4069H239V37.0607H237ZM238 42.4069H216.891V44.4069H238V42.4069ZM253.717 43C251.289 43 249.178 42.2004 247.342 40.581L246.019 42.0811C248.218 44.0203 250.799 45 253.717 45V43ZM247.347 40.5853C245.513 38.9466 244.047 36.6164 242.988 33.5329L241.096 34.1829C242.238 37.505 243.865 40.1568 246.014 42.0768L247.347 40.5853ZM242.989 33.5365C241.932 30.4214 241.391 26.7386 241.391 22.4703H239.391C239.391 26.901 239.951 30.8099 241.095 34.1794L242.989 33.5365ZM241.391 22.4703C241.391 18.161 241.932 14.4802 242.988 11.4078L241.096 10.7578C239.951 14.0909 239.391 18.0018 239.391 22.4703H241.391ZM242.988 11.4078C244.047 8.32494 245.511 6.01881 247.338 4.42209L246.023 2.91584C243.867 4.79866 242.238 7.43506 241.096 10.7578L242.988 11.4078ZM247.347 4.41471C249.153 2.80107 251.261 2 253.717 2V0C250.775 0 248.191 0.978245 246.014 2.92322L247.347 4.41471ZM253.717 2C256.173 2 258.281 2.80107 260.087 4.41471L261.419 2.92322C259.242 0.978245 256.659 0 253.717 0V2ZM260.095 4.42209C261.923 6.01881 263.387 8.32494 264.446 11.4078L266.337 10.7578C265.196 7.43506 263.566 4.79866 261.411 2.91584L260.095 4.42209ZM264.446 11.4078C265.502 14.481 266.043 18.1424 266.043 22.411H268.043C268.043 17.9809 267.483 14.09 266.337 10.7578L264.446 11.4078ZM266.043 22.411C266.043 26.7199 265.502 30.4222 264.445 33.5365L266.339 34.1794C267.483 30.8091 268.043 26.8801 268.043 22.411H266.043ZM264.446 33.5329C263.386 36.6164 261.921 38.9466 260.087 40.5853L261.419 42.0768C263.569 40.1568 265.196 37.505 266.337 34.1829L264.446 33.5329ZM260.087 40.5853C258.281 42.1989 256.173 43 253.717 43V45C256.659 45 259.242 44.0218 261.419 42.0768L260.087 40.5853ZM253.717 38.4759C256.702 38.4759 258.984 36.8768 260.535 33.9732L258.771 33.0309C257.491 35.4257 255.816 36.4759 253.717 36.4759V38.4759ZM260.535 33.9732C262.059 31.1195 262.775 27.2558 262.775 22.4703H260.775C260.775 27.0955 260.076 30.5862 258.771 33.0309L260.535 33.9732ZM262.775 22.4703C262.775 17.6485 262.06 13.7803 260.532 10.9619L258.773 11.9153C260.075 14.3162 260.775 17.8026 260.775 22.4703H262.775ZM260.535 10.9688C259.005 8.09275 256.718 6.52414 253.717 6.52414V8.52414C255.852 8.52414 257.523 9.56518 258.77 11.9084L260.535 10.9688ZM253.717 6.52414C250.739 6.52414 248.457 8.09504 246.902 10.9619L248.66 11.9153C249.936 9.56289 251.61 8.52414 253.717 8.52414V6.52414ZM246.902 10.9619C245.374 13.7803 244.658 17.6485 244.658 22.4703H246.658C246.658 17.8026 247.358 14.3162 248.66 11.9153L246.902 10.9619ZM244.658 22.4703C244.658 27.2558 245.375 31.1195 246.899 33.9732L248.663 33.0309C247.357 30.5862 246.658 27.0955 246.658 22.4703H244.658ZM246.899 33.9732C248.45 36.8768 250.732 38.4759 253.717 38.4759V36.4759C251.618 36.4759 249.942 35.4257 248.663 33.0309L246.899 33.9732ZM273.159 43.4069V1.5931H271.159V43.4069H273.159ZM272.159 2.5931H275.933V0.593103H272.159V2.5931ZM275.042 2.04782L289.94 31.2285L291.721 30.3191L276.823 1.13839L275.042 2.04782ZM291.831 30.7738V1.5931H289.831V30.7738H291.831ZM290.831 2.5931H295.509V0.593103H290.831V2.5931ZM294.509 1.5931V43.4069H296.509V1.5931H294.509ZM295.509 42.4069H291.774V44.4069H295.509V42.4069ZM292.665 42.9527L277.728 13.6534L275.946 14.5618L290.883 43.8611L292.665 42.9527ZM275.837 14.1076V43.4069H277.837V14.1076H275.837ZM276.837 42.4069H272.159V44.4069H276.837V42.4069ZM302.564 43.4069V1.5931H300.564V43.4069H302.564ZM301.564 2.5931H320V0.593103H301.564V2.5931ZM319 1.5931V7.64276H321V1.5931H319ZM320 6.64276H306.399V8.64276H320V6.64276ZM305.399 7.64276V19.149H307.399V7.64276H305.399ZM306.399 20.149H319.135V18.149H306.399V20.149ZM318.135 19.149V25.1986H320.135V19.149H318.135ZM319.135 24.1986H306.399V26.1986H319.135V24.1986ZM305.399 25.1986V37.3572H307.399V25.1986H305.399ZM306.399 38.3572H320V36.3572H306.399V38.3572ZM319 37.3572V43.4069H321V37.3572H319ZM320 42.4069H301.564V44.4069H320V42.4069Z" fill="#290858" mask="url(#path-1-outside-1_235_3187)"/>
</svg>
