<svg width="1440" height="130" viewBox="0 0 1440 130" fill="none" xmlns="http://www.w3.org/2000/svg">
<mask id="path-1-outside-1_106_1315" maskUnits="userSpaceOnUse" x="-1" y="0" width="1442" height="130" fill="black">
<rect fill="white" x="-1" width="1442" height="130"/>
<path d="M42.8076 127.234V21.6565H0V2.76552H108.257V21.6565H65.4496V127.234H42.8076ZM122.602 127.234V2.76552H145.244V54.6717H209.455V2.76552H232.097V127.234H209.455V73.5628H145.244V127.234H122.602ZM259.416 127.234V2.76552H342.378V20.7738H281.174V55.0248H338.486V73.0331H281.174V109.226H342.378V127.234H259.416ZM412.995 127.234V2.76552H431.922L476.145 84.1559L520.191 2.76552H538.764V127.234H518.245V43.3724L482.513 108.343H469.246L433.514 43.7255V127.234H412.995ZM622.109 129C610.08 129 599.526 126.352 590.445 121.055C581.483 115.759 574.525 108.343 569.572 98.8097C564.619 89.1582 562.143 77.8588 562.143 64.9117C562.143 51.8469 564.619 40.5476 569.572 31.0138C574.525 21.48 581.483 14.1237 590.445 8.94483C599.408 3.64828 609.962 1 622.109 1C634.255 1 644.81 3.64828 653.772 8.94483C662.735 14.1237 669.692 21.48 674.645 31.0138C679.598 40.5476 682.075 51.788 682.075 64.7352C682.075 77.8 679.598 89.1582 674.645 98.8097C669.692 108.343 662.735 115.759 653.772 121.055C644.81 126.352 634.255 129 622.109 129ZM622.109 109.579C633.548 109.579 642.451 105.636 648.819 97.7503C655.187 89.8644 658.371 78.9182 658.371 64.9117C658.371 50.7876 655.187 39.8414 648.819 32.0731C642.569 24.3048 633.666 20.4207 622.109 20.4207C610.67 20.4207 601.766 24.3048 595.398 32.0731C589.03 39.8414 585.846 50.7876 585.846 64.9117C585.846 78.9182 589.03 89.8644 595.398 97.7503C601.766 105.636 610.67 109.579 622.109 109.579ZM741.966 127.234L686.422 2.76552H710.656L751.872 98.28L793.088 2.76552H816.437L760.894 127.234H741.966ZM828.093 127.234V2.76552H911.055V20.7738H849.85V55.0248H907.163V73.0331H849.85V109.226H911.055V127.234H828.093ZM976.011 127.234V110.639L1041.81 21.6565H976.011V2.76552H1068.35V19.3614L1002.54 108.343H1071V127.234H976.011ZM1141.73 129C1129.7 129 1119.14 126.352 1110.06 121.055C1101.1 115.759 1094.14 108.343 1089.19 98.8097C1084.24 89.1582 1081.76 77.8588 1081.76 64.9117C1081.76 51.8469 1084.24 40.5476 1089.19 31.0138C1094.14 21.48 1101.1 14.1237 1110.06 8.94483C1119.02 3.64828 1129.58 1 1141.73 1C1153.87 1 1164.43 3.64828 1173.39 8.94483C1182.35 14.1237 1189.31 21.48 1194.26 31.0138C1199.22 40.5476 1201.69 51.788 1201.69 64.7352C1201.69 77.8 1199.22 89.1582 1194.26 98.8097C1189.31 108.343 1182.35 115.759 1173.39 121.055C1164.43 126.352 1153.87 129 1141.73 129ZM1141.73 109.579C1153.16 109.579 1162.07 105.636 1168.44 97.7503C1174.8 89.8644 1177.99 78.9182 1177.99 64.9117C1177.99 50.7876 1174.8 39.8414 1168.44 32.0731C1162.19 24.3048 1153.28 20.4207 1141.73 20.4207C1130.29 20.4207 1121.38 24.3048 1115.02 32.0731C1108.65 39.8414 1105.46 50.7876 1105.46 64.9117C1105.46 78.9182 1108.65 89.8644 1115.02 97.7503C1121.38 105.636 1130.29 109.579 1141.73 109.579ZM1224.72 127.234V2.76552H1241.7L1308.74 89.629V2.76552H1329.79V127.234H1312.98L1245.77 40.0179V127.234H1224.72ZM1357.04 127.234V2.76552H1440V20.7738H1378.8V55.0248H1436.11V73.0331H1378.8V109.226H1440V127.234H1357.04Z"/>
</mask>
<path d="M42.8076 127.234H41.8076V128.234H42.8076V127.234ZM42.8076 21.6565H43.8076V20.6565H42.8076V21.6565ZM0 21.6565H-1V22.6565H0V21.6565ZM0 2.76552V1.76552H-1V2.76552H0ZM108.257 2.76552H109.257V1.76552H108.257V2.76552ZM108.257 21.6565V22.6565H109.257V21.6565H108.257ZM65.4496 21.6565V20.6565H64.4496V21.6565H65.4496ZM65.4496 127.234V128.234H66.4496V127.234H65.4496ZM122.602 127.234H121.602V128.234H122.602V127.234ZM122.602 2.76552V1.76552H121.602V2.76552H122.602ZM145.244 2.76552H146.244V1.76552H145.244V2.76552ZM145.244 54.6717H144.244V55.6717H145.244V54.6717ZM209.455 54.6717V55.6717H210.455V54.6717H209.455ZM209.455 2.76552V1.76552H208.455V2.76552H209.455ZM232.097 2.76552H233.097V1.76552H232.097V2.76552ZM232.097 127.234V128.234H233.097V127.234H232.097ZM209.455 127.234H208.455V128.234H209.455V127.234ZM209.455 73.5628H210.455V72.5628H209.455V73.5628ZM145.244 73.5628V72.5628H144.244V73.5628H145.244ZM145.244 127.234V128.234H146.244V127.234H145.244ZM259.416 127.234H258.416V128.234H259.416V127.234ZM259.416 2.76552V1.76552H258.416V2.76552H259.416ZM342.378 2.76552H343.378V1.76552H342.378V2.76552ZM342.378 20.7738V21.7738H343.378V20.7738H342.378ZM281.174 20.7738V19.7738H280.174V20.7738H281.174ZM281.174 55.0248H280.174V56.0248H281.174V55.0248ZM338.486 55.0248H339.486V54.0248H338.486V55.0248ZM338.486 73.0331V74.0331H339.486V73.0331H338.486ZM281.174 73.0331V72.0331H280.174V73.0331H281.174ZM281.174 109.226H280.174V110.226H281.174V109.226ZM342.378 109.226H343.378V108.226H342.378V109.226ZM342.378 127.234V128.234H343.378V127.234H342.378ZM412.995 127.234H411.995V128.234H412.995V127.234ZM412.995 2.76552V1.76552H411.995V2.76552H412.995ZM431.922 2.76552L432.801 2.2881L432.517 1.76552H431.922V2.76552ZM476.145 84.1559L475.266 84.6333L476.147 86.2537L477.024 84.6318L476.145 84.1559ZM520.191 2.76552V1.76552H519.595L519.311 2.28957L520.191 2.76552ZM538.764 2.76552H539.764V1.76552H538.764V2.76552ZM538.764 127.234V128.234H539.764V127.234H538.764ZM518.245 127.234H517.245V128.234H518.245V127.234ZM518.245 43.3724H519.245L517.369 42.8905L518.245 43.3724ZM482.513 108.343V109.343H483.104L483.389 108.825L482.513 108.343ZM469.246 108.343L468.371 108.827L468.656 109.343H469.246V108.343ZM433.514 43.7255L434.389 43.2416L432.514 43.7255H433.514ZM433.514 127.234V128.234H434.514V127.234H433.514ZM590.445 121.055L589.937 121.916L589.941 121.919L590.445 121.055ZM569.572 98.8097L568.682 99.2662L568.685 99.2707L569.572 98.8097ZM569.572 31.0138L570.46 31.4748L569.572 31.0138ZM590.445 8.94483L590.946 9.81071L590.954 9.80573L590.445 8.94483ZM653.772 8.94483L653.263 9.80577L653.272 9.81067L653.772 8.94483ZM674.645 31.0138L675.533 30.5528L674.645 31.0138ZM674.645 98.8097L675.533 99.2707L675.535 99.2662L674.645 98.8097ZM653.772 121.055L654.281 121.916L653.772 121.055ZM648.819 97.7503L648.041 97.1221L648.819 97.7503ZM648.819 32.0731L648.04 32.7L648.046 32.7071L648.819 32.0731ZM595.398 32.0731L594.625 31.4391L595.398 32.0731ZM595.398 97.7503L596.176 97.1221L595.398 97.7503ZM741.966 127.234L741.053 127.642L741.317 128.234H741.966V127.234ZM686.422 2.76552V1.76552H684.881L685.509 3.17303L686.422 2.76552ZM710.656 2.76552L711.575 2.36932L711.314 1.76552H710.656V2.76552ZM751.872 98.28L750.954 98.6762L751.872 100.804L752.79 98.6762L751.872 98.28ZM793.088 2.76552V1.76552H792.43L792.17 2.36932L793.088 2.76552ZM816.437 2.76552L817.35 3.17303L817.979 1.76552H816.437V2.76552ZM760.894 127.234V128.234H761.542L761.807 127.642L760.894 127.234ZM828.093 127.234H827.093V128.234H828.093V127.234ZM828.093 2.76552V1.76552H827.093V2.76552H828.093ZM911.055 2.76552H912.055V1.76552H911.055V2.76552ZM911.055 20.7738V21.7738H912.055V20.7738H911.055ZM849.85 20.7738V19.7738H848.85V20.7738H849.85ZM849.85 55.0248H848.85V56.0248H849.85V55.0248ZM907.163 55.0248H908.163V54.0248H907.163V55.0248ZM907.163 73.0331V74.0331H908.163V73.0331H907.163ZM849.85 73.0331V72.0331H848.85V73.0331H849.85ZM849.85 109.226H848.85V110.226H849.85V109.226ZM911.055 109.226H912.055V108.226H911.055V109.226ZM911.055 127.234V128.234H912.055V127.234H911.055ZM976.011 127.234H975.011V128.234H976.011V127.234ZM976.011 110.639L975.207 110.044L975.011 110.309V110.639H976.011ZM1041.81 21.6565L1042.62 22.2511L1043.8 20.6565H1041.81V21.6565ZM976.011 21.6565H975.011V22.6565H976.011V21.6565ZM976.011 2.76552V1.76552H975.011V2.76552H976.011ZM1068.35 2.76552H1069.35V1.76552H1068.35V2.76552ZM1068.35 19.3614L1069.15 19.956L1069.35 19.691V19.3614H1068.35ZM1002.54 108.343L1001.74 107.749L1000.56 109.343H1002.54V108.343ZM1071 108.343H1072V107.343H1071V108.343ZM1071 127.234V128.234H1072V127.234H1071ZM1110.06 121.055L1109.55 121.916L1109.56 121.919L1110.06 121.055ZM1089.19 98.8097L1088.3 99.2662L1088.3 99.2707L1089.19 98.8097ZM1089.19 31.0138L1090.08 31.4748L1089.19 31.0138ZM1110.06 8.94483L1110.56 9.81071L1110.57 9.80573L1110.06 8.94483ZM1173.39 8.94483L1172.88 9.80577L1172.89 9.81067L1173.39 8.94483ZM1194.26 31.0138L1195.15 30.5528L1194.26 31.0138ZM1194.26 98.8097L1195.15 99.2707L1195.15 99.2662L1194.26 98.8097ZM1173.39 121.055L1173.9 121.916L1173.39 121.055ZM1168.44 97.7503L1167.66 97.1221L1168.44 97.7503ZM1168.44 32.0731L1167.66 32.7L1167.66 32.7071L1168.44 32.0731ZM1115.02 32.0731L1114.24 31.4391L1115.02 32.0731ZM1115.02 97.7503L1115.79 97.1221L1115.02 97.7503ZM1224.72 127.234H1223.72V128.234H1224.72V127.234ZM1224.72 2.76552V1.76552H1223.72V2.76552H1224.72ZM1241.7 2.76552L1242.49 2.15452L1242.19 1.76552H1241.7V2.76552ZM1308.74 89.629L1307.95 90.24L1309.74 92.5613V89.629H1308.74ZM1308.74 2.76552V1.76552H1307.74V2.76552H1308.74ZM1329.79 2.76552H1330.79V1.76552H1329.79V2.76552ZM1329.79 127.234V128.234H1330.79V127.234H1329.79ZM1312.98 127.234L1312.19 127.845L1312.49 128.234H1312.98V127.234ZM1245.77 40.0179L1246.56 39.4075L1244.77 37.0823V40.0179H1245.77ZM1245.77 127.234V128.234H1246.77V127.234H1245.77ZM1357.04 127.234H1356.04V128.234H1357.04V127.234ZM1357.04 2.76552V1.76552H1356.04V2.76552H1357.04ZM1440 2.76552H1441V1.76552H1440V2.76552ZM1440 20.7738V21.7738H1441V20.7738H1440ZM1378.8 20.7738V19.7738H1377.8V20.7738H1378.8ZM1378.8 55.0248H1377.8V56.0248H1378.8V55.0248ZM1436.11 55.0248H1437.11V54.0248H1436.11V55.0248ZM1436.11 73.0331V74.0331H1437.11V73.0331H1436.11ZM1378.8 73.0331V72.0331H1377.8V73.0331H1378.8ZM1378.8 109.226H1377.8V110.226H1378.8V109.226ZM1440 109.226H1441V108.226H1440V109.226ZM1440 127.234V128.234H1441V127.234H1440ZM43.8076 127.234V21.6565H41.8076V127.234H43.8076ZM42.8076 20.6565H0V22.6565H42.8076V20.6565ZM1 21.6565V2.76552H-1V21.6565H1ZM0 3.76552H108.257V1.76552H0V3.76552ZM107.257 2.76552V21.6565H109.257V2.76552H107.257ZM108.257 20.6565H65.4496V22.6565H108.257V20.6565ZM64.4496 21.6565V127.234H66.4496V21.6565H64.4496ZM65.4496 126.234H42.8076V128.234H65.4496V126.234ZM123.602 127.234V2.76552H121.602V127.234H123.602ZM122.602 3.76552H145.244V1.76552H122.602V3.76552ZM144.244 2.76552V54.6717H146.244V2.76552H144.244ZM145.244 55.6717H209.455V53.6717H145.244V55.6717ZM210.455 54.6717V2.76552H208.455V54.6717H210.455ZM209.455 3.76552H232.097V1.76552H209.455V3.76552ZM231.097 2.76552V127.234H233.097V2.76552H231.097ZM232.097 126.234H209.455V128.234H232.097V126.234ZM210.455 127.234V73.5628H208.455V127.234H210.455ZM209.455 72.5628H145.244V74.5628H209.455V72.5628ZM144.244 73.5628V127.234H146.244V73.5628H144.244ZM145.244 126.234H122.602V128.234H145.244V126.234ZM260.416 127.234V2.76552H258.416V127.234H260.416ZM259.416 3.76552H342.378V1.76552H259.416V3.76552ZM341.378 2.76552V20.7738H343.378V2.76552H341.378ZM342.378 19.7738H281.174V21.7738H342.378V19.7738ZM280.174 20.7738V55.0248H282.174V20.7738H280.174ZM281.174 56.0248H338.486V54.0248H281.174V56.0248ZM337.486 55.0248V73.0331H339.486V55.0248H337.486ZM338.486 72.0331H281.174V74.0331H338.486V72.0331ZM280.174 73.0331V109.226H282.174V73.0331H280.174ZM281.174 110.226H342.378V108.226H281.174V110.226ZM341.378 109.226V127.234H343.378V109.226H341.378ZM342.378 126.234H259.416V128.234H342.378V126.234ZM413.995 127.234V2.76552H411.995V127.234H413.995ZM412.995 3.76552H431.922V1.76552H412.995V3.76552ZM431.043 3.24294L475.266 84.6333L477.023 83.6784L432.801 2.2881L431.043 3.24294ZM477.024 84.6318L521.07 3.24146L519.311 2.28957L475.265 83.6799L477.024 84.6318ZM520.191 3.76552H538.764V1.76552H520.191V3.76552ZM537.764 2.76552V127.234H539.764V2.76552H537.764ZM538.764 126.234H518.245V128.234H538.764V126.234ZM519.245 127.234V43.3724H517.245V127.234H519.245ZM517.369 42.8905L481.637 107.862L483.389 108.825L519.121 43.8543L517.369 42.8905ZM482.513 107.343H469.246V109.343H482.513V107.343ZM470.121 107.86L434.389 43.2416L432.639 44.2094L468.371 108.827L470.121 107.86ZM432.514 43.7255V127.234H434.514V43.7255H432.514ZM433.514 126.234H412.995V128.234H433.514V126.234ZM622.109 128C610.231 128 599.856 125.387 590.949 120.191L589.941 121.919C599.196 127.317 609.929 130 622.109 130V128ZM590.954 120.194C582.158 114.996 575.329 107.722 570.46 98.3486L568.685 99.2707C573.721 108.965 580.808 116.521 589.937 121.916L590.954 120.194ZM570.462 98.3531C565.594 88.8677 563.143 77.7306 563.143 64.9117H561.143C561.143 77.9871 563.644 89.4486 568.682 99.2662L570.462 98.3531ZM563.143 64.9117C563.143 51.9731 565.595 40.8386 570.46 31.4748L568.685 30.5528C563.644 40.2566 561.143 51.7207 561.143 64.9117H563.143ZM570.46 31.4748C575.328 22.1033 582.155 14.8905 590.946 9.81067L589.945 8.07899C580.811 13.3569 573.722 20.8567 568.685 30.5528L570.46 31.4748ZM590.954 9.80573C599.738 4.61446 610.111 2 622.109 2V0C609.813 0 599.077 2.68209 589.937 8.08393L590.954 9.80573ZM622.109 2C634.107 2 644.479 4.61446 653.263 9.80573L654.281 8.08393C645.14 2.68209 634.404 0 622.109 0V2ZM653.272 9.81067C662.063 14.8905 668.889 22.1033 673.758 31.4748L675.533 30.5528C670.496 20.8567 663.406 13.3569 654.273 8.07899L653.272 9.81067ZM673.758 31.4748C678.623 40.8398 681.075 51.9159 681.075 64.7352H683.075C683.075 51.6602 680.573 40.2554 675.533 30.5528L673.758 31.4748ZM681.075 64.7352C681.075 77.6733 678.623 88.8689 673.756 98.3531L675.535 99.2662C680.574 89.4474 683.075 77.9267 683.075 64.7352H681.075ZM673.758 98.3486C668.888 107.722 662.06 114.996 653.263 120.194L654.281 121.916C663.41 116.521 670.496 108.965 675.533 99.2707L673.758 98.3486ZM653.263 120.194C644.479 125.386 634.107 128 622.109 128V130C634.404 130 645.14 127.318 654.281 121.916L653.263 120.194ZM622.109 110.579C633.806 110.579 643.013 106.532 649.597 98.3786L648.041 97.1221C641.889 104.741 633.289 108.579 622.109 108.579V110.579ZM649.597 98.3786C656.155 90.2575 659.371 79.0604 659.371 64.9117H657.371C657.371 78.7759 654.22 89.4712 648.041 97.1221L649.597 98.3786ZM659.371 64.9117C659.371 50.6489 656.157 39.4466 649.593 31.4391L648.046 32.7071C654.218 40.2362 657.371 50.9263 657.371 64.9117H659.371ZM649.598 31.4462C643.127 23.4029 633.914 19.4207 622.109 19.4207V21.4207C633.417 21.4207 642.011 25.2067 648.04 32.7L649.598 31.4462ZM622.109 19.4207C610.417 19.4207 601.211 23.4053 594.625 31.4391L596.172 32.7071C602.322 25.2044 610.923 21.4207 622.109 21.4207V19.4207ZM594.625 31.4391C588.061 39.4466 584.846 50.6489 584.846 64.9117H586.846C586.846 50.9263 590 40.2362 596.172 32.7071L594.625 31.4391ZM584.846 64.9117C584.846 79.0604 588.062 90.2575 594.62 98.3786L596.176 97.1221C589.998 89.4712 586.846 78.7759 586.846 64.9117H584.846ZM594.62 98.3786C601.204 106.532 610.412 110.579 622.109 110.579V108.579C610.928 108.579 602.328 104.741 596.176 97.1221L594.62 98.3786ZM742.879 126.827L687.336 2.358L685.509 3.17303L741.053 127.642L742.879 126.827ZM686.422 3.76552H710.656V1.76552H686.422V3.76552ZM709.738 3.16171L750.954 98.6762L752.79 97.8838L711.575 2.36932L709.738 3.16171ZM752.79 98.6762L794.006 3.16171L792.17 2.36932L750.954 97.8838L752.79 98.6762ZM793.088 3.76552H816.437V1.76552H793.088V3.76552ZM815.524 2.358L759.98 126.827L761.807 127.642L817.35 3.17303L815.524 2.358ZM760.894 126.234H741.966V128.234H760.894V126.234ZM829.093 127.234V2.76552H827.093V127.234H829.093ZM828.093 3.76552H911.055V1.76552H828.093V3.76552ZM910.055 2.76552V20.7738H912.055V2.76552H910.055ZM911.055 19.7738H849.85V21.7738H911.055V19.7738ZM848.85 20.7738V55.0248H850.85V20.7738H848.85ZM849.85 56.0248H907.163V54.0248H849.85V56.0248ZM906.163 55.0248V73.0331H908.163V55.0248H906.163ZM907.163 72.0331H849.85V74.0331H907.163V72.0331ZM848.85 73.0331V109.226H850.85V73.0331H848.85ZM849.85 110.226H911.055V108.226H849.85V110.226ZM910.055 109.226V127.234H912.055V109.226H910.055ZM911.055 126.234H828.093V128.234H911.055V126.234ZM977.011 127.234V110.639H975.011V127.234H977.011ZM976.815 111.233L1042.62 22.2511L1041.01 21.062L975.207 110.044L976.815 111.233ZM1041.81 20.6565H976.011V22.6565H1041.81V20.6565ZM977.011 21.6565V2.76552H975.011V21.6565H977.011ZM976.011 3.76552H1068.35V1.76552H976.011V3.76552ZM1067.35 2.76552V19.3614H1069.35V2.76552H1067.35ZM1067.54 18.7668L1001.74 107.749L1003.35 108.938L1069.15 19.956L1067.54 18.7668ZM1002.54 109.343H1071V107.343H1002.54V109.343ZM1070 108.343V127.234H1072V108.343H1070ZM1071 126.234H976.011V128.234H1071V126.234ZM1141.73 128C1129.85 128 1119.47 125.387 1110.57 120.191L1109.56 121.919C1118.81 127.317 1129.55 130 1141.73 130V128ZM1110.57 120.194C1101.78 114.996 1094.95 107.722 1090.08 98.3486L1088.3 99.2707C1093.34 108.965 1100.42 116.521 1109.55 121.916L1110.57 120.194ZM1090.08 98.3531C1085.21 88.8677 1082.76 77.7306 1082.76 64.9117H1080.76C1080.76 77.9871 1083.26 89.4486 1088.3 99.2662L1090.08 98.3531ZM1082.76 64.9117C1082.76 51.9731 1085.21 40.8386 1090.08 31.4748L1088.3 30.5528C1083.26 40.2566 1080.76 51.7207 1080.76 64.9117H1082.76ZM1090.08 31.4748C1094.95 22.1033 1101.77 14.8905 1110.56 9.81067L1109.56 8.07899C1100.43 13.3569 1093.34 20.8567 1088.3 30.5528L1090.08 31.4748ZM1110.57 9.80573C1119.36 4.61446 1129.73 2 1141.73 2V0C1129.43 0 1118.69 2.68209 1109.55 8.08393L1110.57 9.80573ZM1141.73 2C1153.72 2 1164.1 4.61446 1172.88 9.80573L1173.9 8.08393C1164.76 2.68209 1154.02 0 1141.73 0V2ZM1172.89 9.81067C1181.68 14.8905 1188.51 22.1033 1193.38 31.4748L1195.15 30.5528C1190.11 20.8567 1183.02 13.3569 1173.89 8.07899L1172.89 9.81067ZM1193.38 31.4748C1198.24 40.8398 1200.69 51.9159 1200.69 64.7352H1202.69C1202.69 51.6602 1200.19 40.2554 1195.15 30.5528L1193.38 31.4748ZM1200.69 64.7352C1200.69 77.6733 1198.24 88.8689 1193.37 98.3531L1195.15 99.2662C1200.19 89.4474 1202.69 77.9267 1202.69 64.7352H1200.69ZM1193.38 98.3486C1188.51 107.722 1181.68 114.996 1172.88 120.194L1173.9 121.916C1183.03 116.521 1190.11 108.965 1195.15 99.2707L1193.38 98.3486ZM1172.88 120.194C1164.1 125.386 1153.72 128 1141.73 128V130C1154.02 130 1164.76 127.318 1173.9 121.916L1172.88 120.194ZM1141.73 110.579C1153.42 110.579 1162.63 106.532 1169.21 98.3786L1167.66 97.1221C1161.51 104.741 1152.91 108.579 1141.73 108.579V110.579ZM1169.21 98.3786C1175.77 90.2575 1178.99 79.0604 1178.99 64.9117H1176.99C1176.99 78.7759 1173.84 89.4712 1167.66 97.1221L1169.21 98.3786ZM1178.99 64.9117C1178.99 50.6489 1175.77 39.4466 1169.21 31.4391L1167.66 32.7071C1173.84 40.2362 1176.99 50.9263 1176.99 64.9117H1178.99ZM1169.22 31.4462C1162.74 23.4029 1153.53 19.4207 1141.73 19.4207V21.4207C1153.03 21.4207 1161.63 25.2067 1167.66 32.7L1169.22 31.4462ZM1141.73 19.4207C1130.03 19.4207 1120.83 23.4053 1114.24 31.4391L1115.79 32.7071C1121.94 25.2044 1130.54 21.4207 1141.73 21.4207V19.4207ZM1114.24 31.4391C1107.68 39.4466 1104.46 50.6489 1104.46 64.9117H1106.46C1106.46 50.9263 1109.62 40.2362 1115.79 32.7071L1114.24 31.4391ZM1104.46 64.9117C1104.46 79.0604 1107.68 90.2575 1114.24 98.3786L1115.79 97.1221C1109.62 89.4712 1106.46 78.7759 1106.46 64.9117H1104.46ZM1114.24 98.3786C1120.82 106.532 1130.03 110.579 1141.73 110.579V108.579C1130.55 108.579 1121.95 104.741 1115.79 97.1221L1114.24 98.3786ZM1225.72 127.234V2.76552H1223.72V127.234H1225.72ZM1224.72 3.76552H1241.7V1.76552H1224.72V3.76552ZM1240.91 3.37651L1307.95 90.24L1309.53 89.018L1242.49 2.15452L1240.91 3.37651ZM1309.74 89.629V2.76552H1307.74V89.629H1309.74ZM1308.74 3.76552H1329.79V1.76552H1308.74V3.76552ZM1328.79 2.76552V127.234H1330.79V2.76552H1328.79ZM1329.79 126.234H1312.98V128.234H1329.79V126.234ZM1313.78 126.624L1246.56 39.4075L1244.97 40.6284L1312.19 127.845L1313.78 126.624ZM1244.77 40.0179V127.234H1246.77V40.0179H1244.77ZM1245.77 126.234H1224.72V128.234H1245.77V126.234ZM1358.04 127.234V2.76552H1356.04V127.234H1358.04ZM1357.04 3.76552H1440V1.76552H1357.04V3.76552ZM1439 2.76552V20.7738H1441V2.76552H1439ZM1440 19.7738H1378.8V21.7738H1440V19.7738ZM1377.8 20.7738V55.0248H1379.8V20.7738H1377.8ZM1378.8 56.0248H1436.11V54.0248H1378.8V56.0248ZM1435.11 55.0248V73.0331H1437.11V55.0248H1435.11ZM1436.11 72.0331H1378.8V74.0331H1436.11V72.0331ZM1377.8 73.0331V109.226H1379.8V73.0331H1377.8ZM1378.8 110.226H1440V108.226H1378.8V110.226ZM1439 109.226V127.234H1441V109.226H1439ZM1440 126.234H1357.04V128.234H1440V126.234Z" fill="#290858" mask="url(#path-1-outside-1_106_1315)"/>
</svg>
