<svg width="48" height="48" viewBox="0 0 48 48" fill="none" xmlns="http://www.w3.org/2000/svg">
<path d="M48 24C48 37.2548 37.2548 48 24 48C10.7452 48 0 37.2548 0 24C0 10.7452 10.7452 0 24 0C37.2548 0 48 10.7452 48 24Z" fill="url(#paint0_linear_68_341)"/>
<g clip-path="url(#clip0_68_341)">
<path d="M26 16L23 19H15C14.2044 19 13.4413 19.3161 12.8787 19.8787C12.3161 20.4413 12 21.2044 12 22V25C12 25.7956 12.3161 26.5587 12.8787 27.1213C13.4413 27.6839 14.2044 28 15 28V31C15 31.5304 15.2107 32.0391 15.5858 32.4142C15.9609 32.7893 16.4696 33 17 33H18C18.5304 33 19.0391 32.7893 19.4142 32.4142C19.7893 32.0391 20 31.5304 20 31V28H23L26 31H28V16H26ZM26.414 17H27V30H26.414L23.414 27H15C14.4696 27 13.9609 26.7893 13.5858 26.4142C13.2107 26.0391 13 25.5304 13 25V22C13 21.4696 13.2107 20.9609 13.5858 20.5858C13.9609 20.2107 14.4696 20 15 20H23.414L26.414 17ZM30 19V20.008C30.8331 20.1284 31.5949 20.5449 32.1459 21.1813C32.6969 21.8177 33.0002 22.6312 33.0002 23.473C33.0002 24.3148 32.6969 25.1283 32.1459 25.7647C31.5949 26.4011 30.8331 26.8176 30 26.938V27.945C31.1007 27.8228 32.1177 27.2989 32.8563 26.4737C33.5949 25.6485 34.0033 24.58 34.0033 23.4725C34.0033 22.365 33.5949 21.2965 32.8563 20.4713C32.1177 19.6461 31.1007 19.1222 30 19ZM30 22.059V24.887C30.2923 24.7835 30.5454 24.592 30.7243 24.3388C30.9033 24.0855 30.9994 23.7831 30.9994 23.473C30.9994 23.1629 30.9033 22.8605 30.7243 22.6072C30.5454 22.354 30.2923 22.1625 30 22.059ZM16 28H19V31C19 31.2652 18.8946 31.5196 18.7071 31.7071C18.5196 31.8946 18.2652 32 18 32H17C16.7348 32 16.4804 31.8946 16.2929 31.7071C16.1054 31.5196 16 31.2652 16 31V28Z" fill="white"/>
</g>
<defs>
<linearGradient id="paint0_linear_68_341" x1="-30.8" y1="-31.6533" x2="76.1635" y2="11.5144" gradientUnits="userSpaceOnUse">
<stop stop-color="#000099"/>
<stop offset="1" stop-color="#660099"/>
</linearGradient>
<clipPath id="clip0_68_341">
<rect width="24" height="24" fill="white" transform="translate(12 12)"/>
</clipPath>
</defs>
</svg>
