<svg width="110" height="110" viewBox="0 0 110 110" fill="none" xmlns="http://www.w3.org/2000/svg">
<path d="M0 0H101C105.971 0 110 4.02944 110 9V110L0 0Z" fill="url(#paint0_linear_534_5220)"/>
<path d="M68.3943 41C68.141 40.5333 67.8143 39.9867 67.4143 39.36C67.0276 38.7333 66.601 38.0667 66.1343 37.36C65.6676 36.64 65.1743 35.9067 64.6543 35.16C64.1343 34.4 63.6143 33.6667 63.0943 32.96C62.5876 32.24 62.0876 31.5667 61.5943 30.94C61.1143 30.3133 60.681 29.7733 60.2943 29.32V41H58.9543V27.14H60.0343C60.7143 27.9 61.441 28.78 62.2143 29.78C63.001 30.7667 63.7676 31.78 64.5143 32.82C65.261 33.8467 65.9543 34.8533 66.5943 35.84C67.2476 36.8267 67.781 37.6867 68.1943 38.42V27.14H69.5343V41H68.3943ZM73.134 41V27.14H81.134V28.32H74.494V33.14H80.414V34.3H74.494V39.82H81.654V41H73.134ZM92.2477 28.84C92.8877 30.9867 93.5277 32.9333 94.1677 34.68C94.8211 36.4133 95.4544 38.0067 96.0677 39.46C96.5344 37.8867 96.9944 36.0333 97.4477 33.9C97.9144 31.7667 98.3611 29.5133 98.7877 27.14H100.128C99.8877 28.5667 99.6411 29.9067 99.3877 31.16C99.1477 32.4 98.8944 33.5867 98.6277 34.72C98.3611 35.84 98.0811 36.92 97.7877 37.96C97.4944 38.9867 97.1744 40 96.8277 41H95.3677C95.0477 40.24 94.7277 39.48 94.4077 38.72C94.1011 37.96 93.7944 37.18 93.4877 36.38C93.1811 35.5667 92.8744 34.72 92.5677 33.84C92.2611 32.96 91.9477 32.0267 91.6277 31.04C91.3077 32.0267 90.9877 32.96 90.6677 33.84C90.3611 34.72 90.0544 35.5667 89.7477 36.38C89.4411 37.18 89.1277 37.96 88.8077 38.72C88.5011 39.48 88.1877 40.24 87.8677 41H86.4277C86.0677 40 85.7344 38.9867 85.4277 37.96C85.1344 36.92 84.8544 35.84 84.5877 34.72C84.3344 33.5867 84.0877 32.4 83.8477 31.16C83.6211 29.9067 83.3877 28.5667 83.1477 27.14H84.5477C84.7477 28.3133 84.9544 29.4667 85.1677 30.6C85.3811 31.72 85.6011 32.8067 85.8277 33.86C86.0677 34.9133 86.3077 35.9133 86.5477 36.86C86.8011 37.7933 87.0477 38.66 87.2877 39.46C87.8611 37.98 88.4744 36.38 89.1277 34.66C89.7811 32.9267 90.4277 30.9867 91.0677 28.84H92.2477Z" fill="white"/>
<defs>
<linearGradient id="paint0_linear_534_5220" x1="-70.5833" y1="-72.5389" x2="174.541" y2="26.3871" gradientUnits="userSpaceOnUse">
<stop stop-color="#F83600"/>
<stop offset="1" stop-color="#F9D423"/>
</linearGradient>
</defs>
</svg>
