<svg width="8" height="12" viewBox="0 0 8 12" fill="none" xmlns="http://www.w3.org/2000/svg">
<path fill-rule="evenodd" clip-rule="evenodd" d="M6.91175 1.38C6.19544 0.793333 5.16688 0.5 3.82609 0.5C3.44038 0.5 3.01334 0.520952 2.54498 0.562857C2.08581 0.594286 1.66796 0.662381 1.29143 0.767143V8.84821H0.430478C0.192731 8.84821 0 9.06807 0 9.33928C0 9.6105 0.192731 9.83036 0.430478 9.83036H1.29143V11.5H2.62764V9.83036H4.73526C4.973 9.83036 5.16573 9.6105 5.16573 9.33928C5.16573 9.06807 4.973 8.84821 4.73526 8.84821H2.62764V7.46143H3.68833C4.35873 7.46143 4.96025 7.39857 5.4929 7.27286C6.02554 7.14714 6.47553 6.9481 6.84288 6.67571C7.2194 6.39286 7.50409 6.03143 7.69694 5.59143C7.89898 5.14095 8 4.60143 8 3.97286C8 2.82048 7.63725 1.95619 6.91175 1.38ZM2.62764 1.88286C2.93069 1.85143 3.36691 1.83571 3.93629 1.83571C4.29445 1.83571 4.63424 1.86714 4.95566 1.93C5.27708 1.99286 5.55718 2.1081 5.79595 2.27571C6.04391 2.43286 6.23676 2.64762 6.37452 2.92C6.52145 3.19238 6.59492 3.5381 6.59492 3.95714C6.59492 4.39714 6.52604 4.75857 6.38829 5.04143C6.25054 5.32429 6.05309 5.54952 5.79595 5.71714C5.548 5.87429 5.24035 5.98952 4.87301 6.06286C4.50567 6.12571 4.09241 6.15714 3.63323 6.15714H2.62764V1.88286Z" fill="#747576"/>
</svg>
