<svg width="12" height="14" viewBox="0 0 12 14" fill="none" xmlns="http://www.w3.org/2000/svg">
<path fill-rule="evenodd" clip-rule="evenodd" d="M10.0037 1.12C9.01873 0.373333 7.60446 0 5.76087 0C5.23052 0 4.64335 0.0266667 3.99935 0.0800002C3.36799 0.12 2.79344 0.206667 2.27572 0.34V10.625H1.09191C0.765006 10.625 0.5 10.9048 0.5 11.25C0.5 11.5952 0.765006 11.875 1.09191 11.875H2.27572V14H4.113V11.875H7.01098C7.33788 11.875 7.60288 11.5952 7.60288 11.25C7.60288 10.9048 7.33788 10.625 7.01098 10.625H4.113V8.86H5.57146C6.49326 8.86 7.32035 8.78 8.05273 8.62C8.78512 8.46 9.40386 8.20667 9.90895 7.86C10.4267 7.5 10.8181 7.04 11.0833 6.48C11.3611 5.90667 11.5 5.22 11.5 4.42C11.5 2.95333 11.0012 1.85333 10.0037 1.12ZM4.113 1.76C4.5297 1.72 5.1295 1.7 5.9124 1.7C6.40486 1.7 6.87208 1.74 7.31403 1.82C7.75599 1.9 8.14113 2.04667 8.46944 2.26C8.81038 2.46 9.07555 2.73333 9.26496 3.08C9.467 3.42667 9.56802 3.86667 9.56802 4.4C9.56802 4.96 9.47331 5.42 9.2839 5.78C9.09449 6.14 8.823 6.42667 8.46944 6.64C8.1285 6.84 7.70548 6.98667 7.20039 7.08C6.69529 7.16 6.12706 7.2 5.4957 7.2H4.113V1.76Z" fill="url(#paint0_linear_615_1152)"/>
<defs>
<linearGradient id="paint0_linear_615_1152" x1="0.5" y1="0" x2="14.0939" y2="3.29333" gradientUnits="userSpaceOnUse">
<stop stop-color="#FF9966"/>
<stop offset="1" stop-color="#FF5E62"/>
</linearGradient>
</defs>
</svg>
