<svg width="36" height="36" viewBox="0 0 36 36" fill="none" xmlns="http://www.w3.org/2000/svg">
<path d="M29.4753 20.218C28.1728 18.1267 26.6245 16.0109 25.9794 13.6016C25.1766 10.2297 25.6975 6.67985 27.4355 3.67716C27.4817 3.58068 27.4899 3.47051 27.4585 3.36832C27.4272 3.26612 27.3586 3.17928 27.2662 3.12487C27.1738 3.07046 27.0643 3.05242 26.9592 3.07428C26.8541 3.09614 26.761 3.15632 26.6983 3.24301C25.4454 5.42735 24.7978 7.9036 24.8215 10.4187C24.8453 12.9338 25.5396 15.3975 26.8334 17.558C27.2574 18.3101 27.7427 19.0378 28.2035 19.7716C21.5189 21.4776 14.8835 21.1352 8.10673 20.169C8.9714 18.8253 9.68237 17.3896 10.2264 15.8886C11.5504 11.7084 11.2455 7.18532 9.37238 3.21855C9.14505 2.72324 8.40779 3.1574 8.63512 3.6527C11.0313 8.79533 10.4353 14.525 7.60907 19.4169C5.34196 23.3427 3.39433 28.1918 5.22522 32.7168C5.42797 33.2182 6.2574 32.9981 6.04851 32.4905C4.91188 29.6716 5.39113 26.2839 6.41102 23.4955C6.75186 22.6164 7.16277 21.7657 7.6398 20.9517C10.9391 22.2175 13.1693 25.8437 14.8343 28.7666C15.4487 29.8489 15.8911 31.1392 16.5854 32.1726C17.1568 33.0164 17.8694 32.9308 18.9139 32.7535C18.9853 32.734 19.0503 32.696 19.1021 32.6434C19.1539 32.5907 19.1908 32.5253 19.2088 32.4539C19.7863 29.2374 21.8814 26.5469 24.1547 24.2782C25.3835 23.0553 27.0055 21.2942 28.695 20.5543C29.2265 21.4235 29.6397 22.3591 29.9238 23.3365C30.7214 26.2872 30.8098 29.3834 30.1819 32.3744C30.059 32.9064 30.8884 33.1326 31.0052 32.6006C31.9145 28.6749 31.6626 23.7279 29.4753 20.218ZM24.2898 22.9941C22.0412 25.0915 19.8662 27.5986 18.8279 30.5338C18.5453 31.3471 18.3548 32.5884 17.2612 31.6345C16.911 31.3287 16.7144 30.4787 16.4993 30.0629C15.7484 28.6019 14.9071 27.1887 13.9803 25.8314C12.8756 24.0896 11.484 22.5454 9.8639 21.2636C15.4364 21.9546 20.923 22.1441 26.4525 21.0557C25.6599 21.6855 24.935 22.3949 24.2898 22.9941Z" fill="white"/>
<path d="M18.375 17.25C18.4784 17.228 18.5736 17.1395 18.6427 17.0013C18.7118 16.8631 18.75 16.6847 18.75 16.5C18.75 16.3153 18.7118 16.1369 18.6427 15.9987C18.5736 15.8605 18.4784 15.772 18.375 15.75C18.2716 15.772 18.1764 15.8605 18.1073 15.9987C18.0382 16.1369 18 16.3153 18 16.5C18 16.6847 18.0382 16.8631 18.1073 17.0013C18.1764 17.1395 18.2716 17.228 18.375 17.25Z" fill="white"/>
<path d="M7.6146 24.2178C6.97268 25.606 6.67637 27.2141 6.76553 28.8257C6.79988 29.3883 7.48209 29.3946 7.45264 28.8257C7.36356 27.3707 7.62584 25.9159 8.20356 24.6603C8.24912 24.5597 8.26178 24.4399 8.23877 24.3273C8.21576 24.2147 8.15896 24.1185 8.08086 24.0598C8.00276 24.0011 7.90977 23.9848 7.82233 24.0145C7.73489 24.0441 7.66016 24.1172 7.6146 24.2178Z" fill="white"/>
<path d="M6.75 30.3621V30.3879C6.75 30.484 6.7895 30.576 6.85983 30.6439C6.93016 30.7118 7.02554 30.75 7.12499 30.75C7.22445 30.75 7.31984 30.7118 7.39017 30.6439C7.4605 30.576 7.5 30.484 7.5 30.3879V30.3621C7.5 30.266 7.4605 30.1739 7.39017 30.106C7.31984 30.0381 7.22445 30 7.12499 30C7.02554 30 6.93016 30.0381 6.85983 30.106C6.7895 30.1739 6.75 30.266 6.75 30.3621V30.3621Z" fill="white"/>
</svg>
