<svg width="36" height="36" viewBox="0 0 36 36" fill="none" xmlns="http://www.w3.org/2000/svg">
<path d="M29.0099 3.47935H28.951L28.8921 3.42122C25.7378 1.16916 21.9369 -0.0293334 18.044 0.00054539C14.151 0.0304241 10.3695 1.28711 7.251 3.58731C4.29911 5.88477 2.10227 8.99323 0.937335 12.521C-0.227603 16.0487 -0.308507 19.8379 0.704815 23.4109C2.61482 30.1545 11.7189 35.6356 18.568 35.2287C20.7304 35.0958 23.2967 34.7304 25.1563 33.5677C28.3783 31.5328 31.1491 28.8743 33.3011 25.7529C38.3917 18.2536 35.9011 8.78613 29.0099 3.47935ZM34.5632 13.9102C34.9832 16.404 34.798 18.9606 34.0228 21.3701C33.2476 23.7795 31.9045 25.9732 30.1038 27.771C27.731 30.2624 25.2067 32.7539 21.7485 33.5262C18.0332 34.472 14.0936 34.0066 10.7092 32.2224C6.82188 30.0797 2.49702 26.6 1.62195 22.0822C1.11557 19.7225 1.08757 17.2872 1.53959 14.9168C1.99161 12.5464 2.91469 10.2878 4.25558 8.27124C9.76683 0.456392 20.5285 -0.955435 28.2611 4.35966C31.3322 6.75145 33.8733 10.0568 34.5632 13.9102Z" fill="white"/>
<path d="M25.8966 8.33746C23.6529 10.5798 21.4091 12.8248 19.1653 15.0727C18.7622 14.7111 18.2417 14.5032 17.6973 14.4865C17.1529 14.4697 16.6202 14.6452 16.1951 14.9813C15.1854 15.8118 14.7731 17.7717 15.7155 18.7517C16.2122 19.2166 16.8589 19.4939 17.5421 19.5349C18.2253 19.5759 18.9013 19.378 19.4514 18.9759C19.8769 18.6102 20.157 18.1072 20.2418 17.5566C20.3265 17.006 20.2104 16.4436 19.9142 15.9696L26.7212 9.15963C27.2597 8.62812 26.4183 7.80595 25.8966 8.33746ZM16.7336 18.0873C16.2204 17.7053 16.3298 16.6423 16.6663 16.1523C16.7785 15.998 16.9263 15.8723 17.0975 15.7855C17.2687 15.6988 17.4584 15.6536 17.6508 15.6536C17.8432 15.6536 18.0329 15.6988 18.2041 15.7855C18.3753 15.8723 18.5231 15.998 18.6352 16.1523L18.6857 16.1938V16.2686C19.8973 17.6306 18.0715 19.0756 16.7336 18.0873Z" fill="white"/>
<path d="M11.2728 5.35587C7.34345 7.42378 5.30723 11.2772 4.29753 15.4213C4.12084 16.1438 5.25674 16.4511 5.43344 15.7286C6.37582 11.8585 8.18486 8.25426 11.8702 6.35245C12.5434 6.00365 11.9544 4.99877 11.2728 5.35587Z" fill="white"/>
<path d="M4.58382 18.1206C4.44076 18.1376 4.30896 18.2057 4.21335 18.3121C4.11774 18.4185 4.06494 18.5558 4.06494 18.698C4.06494 18.8403 4.11774 18.9776 4.21335 19.084C4.30896 19.1904 4.44076 19.2585 4.58382 19.2755C4.72687 19.2585 4.85866 19.1904 4.95427 19.084C5.04988 18.9776 5.10268 18.8403 5.10268 18.698C5.10268 18.5558 5.04988 18.4185 4.95427 18.3121C4.85866 18.2057 4.72687 18.1376 4.58382 18.1206V18.1206Z" fill="white"/>
</svg>
