<svg width="36" height="20" viewBox="0 0 36 20" fill="none" xmlns="http://www.w3.org/2000/svg">
<path d="M35.2194 10.4247C35.2194 10.1191 35.1574 9.81921 35.1462 9.51928C35.1349 9.21936 35.2138 8.80626 34.9941 8.512C34.6335 8.03665 33.9913 8.10456 33.4504 8.11588C33.4504 7.32363 33.4504 6.52573 33.4504 5.73348C33.4504 5.16759 33.6307 4.25084 33.2983 3.76418C32.735 2.96627 31.1519 3.06248 30.1942 3.03984C30.1942 2.90403 30.1942 2.76821 30.1942 2.6324C30.0195 0.583875 28.9097 0.266977 26.9548 0.25C24.7971 0.25 24.2337 1.00263 24.0816 3.13038C23.9633 4.82805 23.9239 6.49743 23.8957 8.18944C21.8394 8.36487 19.631 8.12154 17.5578 8.14417C15.7832 8.14417 13.9917 8.17812 12.2171 8.24603C12.2171 6.54836 12.1438 4.89596 12.0255 3.23224C11.8791 1.12147 11.3213 0.334884 9.15799 0.35186C7.64816 0.35186 6.0989 0.498992 5.90172 2.22496C5.86792 2.53054 5.83975 2.83612 5.82285 3.1417C4.88202 3.1417 3.40599 3.07945 2.85953 3.7755C2.16095 4.66395 2.48207 7.02371 2.47644 8.06495C2.47644 8.0989 2.47644 8.13851 2.47644 8.17247C2.04615 8.11951 1.60968 8.1522 1.19196 8.26867C0.555351 8.54029 0.791968 9.6268 0.797602 10.1701C0.803235 10.7133 0.600423 11.6301 1.30463 11.7828C1.67556 11.8555 2.05421 11.8802 2.43137 11.8564C2.39996 13.1342 2.52292 14.4111 2.79756 15.6592C3.16375 17.1135 4.54963 17.1022 5.90172 17.1305C5.90172 17.3173 5.90172 17.5097 5.90172 17.6964C6.06509 19.5355 7.06226 19.6544 8.68476 19.6827C9.71572 19.6827 11.3382 20.0618 11.9354 19.0206C12.2903 18.4094 12.2171 17.3229 12.2396 16.6552C12.2847 15.1838 12.2734 13.7125 12.2396 12.2412C12.2396 12.1224 12.2396 12.0035 12.2396 11.8847C16.0987 11.8394 19.9916 12.0318 23.845 11.8281C23.845 13.141 23.845 14.4595 23.845 15.7894C23.845 16.6438 23.7154 17.7247 23.9915 18.5339C24.4591 19.926 26.0816 19.6148 27.3041 19.5978C28.6787 19.5978 29.828 19.6657 30.1491 18.0699C30.2148 17.732 30.2543 17.3896 30.2674 17.0456C31.5463 17.0456 32.9547 17.0173 33.3209 15.6252C33.5847 14.4374 33.6814 13.2183 33.6082 12.0035C34.0441 12.049 34.4846 11.9888 34.8927 11.8281C35.3433 11.5621 35.2532 10.8887 35.2194 10.4247ZM1.54125 11.0472C1.52152 10.6853 1.52152 10.3226 1.54125 9.96068C1.54125 9.74564 1.54125 9.53626 1.54125 9.32122C1.54125 9.27029 1.58632 9.00433 1.54125 8.98169C1.71723 8.96216 1.89483 8.96216 2.07082 8.98169C2.20039 8.98169 2.32433 8.98169 2.45391 8.98169C2.45391 9.66642 2.40883 10.3851 2.39757 11.1094C2.11073 11.1193 1.82368 11.0984 1.54125 11.0472V11.0472ZM3.46234 15.0084C3.36318 14.3703 3.32357 13.7243 3.34402 13.0787C3.25952 11.415 3.21445 9.73998 3.22572 8.07061C3.15581 7.0315 3.19926 5.98783 3.35529 4.95821C3.62571 3.82643 4.70738 3.96224 5.76088 3.93961C5.76088 5.77875 5.90172 7.66316 5.86792 9.47967C5.82285 11.7432 5.70454 14.0747 5.79468 16.3496C4.544 16.3269 3.79472 16.3949 3.44543 15.0028L3.46234 15.0084ZM11.4002 17.238C11.3439 18.0925 11.434 18.7037 10.5326 18.9357C9.95008 18.9951 9.36306 18.9951 8.78053 18.9357C8.30461 18.9802 7.82808 18.8572 7.43244 18.5878C7.0368 18.3184 6.74663 17.9193 6.61156 17.4587C6.41438 16.7344 6.61156 15.6479 6.61156 14.8896C6.61156 13.0787 6.56086 11.2735 6.61156 9.4627C6.61156 8.26301 6.61156 7.07464 6.58339 5.87495C6.58339 4.92991 6.64537 3.98488 6.6341 3.0455C6.6341 1.4893 7.65943 1.13279 9.08475 1.13279C9.46615 1.13191 9.84249 1.22046 10.1838 1.3914C10.5252 1.56234 10.8221 1.81095 11.0509 2.11744C11.2819 2.47395 11.1692 3.35108 11.1917 3.81511C11.2368 4.74317 11.2537 5.67123 11.2819 6.59363C11.3326 8.37053 11.3777 10.1418 11.3946 11.9187C11.4115 13.6956 11.5016 15.4668 11.3833 17.2324L11.4002 17.238ZM12.2114 11.1038V9.04394C13.9861 8.97037 15.7719 8.95905 17.5409 8.94208C19.6085 8.91378 21.8112 9.15712 23.8675 8.98735C23.8675 9.67208 23.8675 10.3568 23.8675 11.0415C19.9578 11.2339 16.0593 11.0528 12.1945 11.0981L12.2114 11.1038ZM29.4224 5.79007C29.3942 6.98975 29.366 8.17812 29.3885 9.37781C29.4223 11.0755 29.3885 12.7732 29.3885 14.4708C29.3885 16.3439 29.9519 18.7659 27.2928 18.8055C26.8534 18.8055 26.0309 18.9753 25.6027 18.8055C24.4196 18.2793 24.6337 17.3569 24.6168 16.3892C24.583 14.6915 24.583 13.0504 24.6168 11.3754C24.6506 9.70037 24.6788 7.90084 24.7351 6.16356C24.7915 4.2848 24.2337 1.07054 26.9266 1.07054C28.5266 1.07054 29.1407 1.63643 29.4055 3.30015C29.4767 4.12669 29.4767 4.95787 29.4055 5.78441L29.4224 5.79007ZM32.6786 13.2202C32.7087 13.8067 32.6766 14.3948 32.5828 14.9745C32.2448 16.2987 31.4223 16.2307 30.2561 16.2477C30.2561 15.4102 30.166 14.5501 30.1773 13.7748C30.1773 12.3091 30.1773 10.8435 30.1773 9.37781C30.1378 7.53301 30.273 5.67689 30.2167 3.83209C30.7064 3.82021 31.1959 3.86387 31.6758 3.96224C32.549 4.19991 32.5659 4.29046 32.6561 5.28642C32.7688 6.52007 32.6843 7.8103 32.7012 9.04394C32.7012 10.4304 32.7124 11.7998 32.6617 13.2145L32.6786 13.2202ZM33.5631 11.1717C33.5349 10.436 33.4955 9.71169 33.4842 9.04394V8.91378C33.6645 8.91378 33.8448 8.91378 34.0476 8.91378C34.3124 8.91378 34.318 8.86285 34.3969 9.07223C34.4224 9.28083 34.4224 9.49178 34.3969 9.70037C34.3969 9.92673 34.442 10.1474 34.4589 10.3738C34.4758 10.6001 34.4589 10.7359 34.4589 10.9397C34.4546 11.0037 34.4546 11.068 34.4589 11.1321C34.4327 11.1364 34.4061 11.1364 34.38 11.1321C34.087 11.1377 33.8166 11.1604 33.5462 11.166L33.5631 11.1717Z" fill="white"/>
<path d="M7.46226 3.04528C7.1706 4.01045 7.12221 5.03327 7.32142 6.02187C7.37776 6.51985 8.16647 6.52551 8.1045 6.02187C7.91564 5.10414 7.95434 4.15384 8.21718 3.25466C8.41435 2.78497 7.65381 2.58125 7.46226 3.04528Z" fill="white"/>
<path d="M8.54389 1.87402C8.4393 1.87402 8.339 1.91576 8.26504 1.99005C8.19108 2.06433 8.14954 2.16509 8.14954 2.27015C8.14954 2.37521 8.19108 2.47596 8.26504 2.55025C8.339 2.62454 8.4393 2.66627 8.54389 2.66627C8.64848 2.66627 8.74879 2.62454 8.82274 2.55025C8.8967 2.47596 8.93825 2.37521 8.93825 2.27015C8.93825 2.16509 8.8967 2.06433 8.82274 1.99005C8.74879 1.91576 8.64848 1.87402 8.54389 1.87402Z" fill="white"/>
<path d="M25.6646 2.68296C25.4342 3.10862 25.3123 3.58491 25.3097 4.06939C25.2388 4.63239 25.2237 5.20106 25.2646 5.76706C25.304 6.2707 26.0927 6.27636 26.0477 5.76706C26.0082 5.29632 26.0082 4.82308 26.0477 4.35233C26.0329 3.90965 26.1278 3.47022 26.3237 3.07342C26.6448 2.67164 25.9632 2.28117 25.6646 2.68296Z" fill="white"/>
<path d="M26.78 1.67578C26.6843 1.68734 26.5961 1.73374 26.5321 1.80621C26.4681 1.87868 26.4327 1.9722 26.4327 2.06907C26.4327 2.16595 26.4681 2.25946 26.5321 2.33194C26.5961 2.40441 26.6843 2.45081 26.78 2.46237C26.8758 2.45081 26.964 2.40441 27.028 2.33194C27.092 2.25946 27.1274 2.16595 27.1274 2.06907C27.1274 1.9722 27.092 1.87868 27.028 1.80621C26.964 1.73374 26.8758 1.68734 26.78 1.67578Z" fill="white"/>
</svg>
