<svg width="36" height="36" viewBox="0 0 36 36" fill="none" xmlns="http://www.w3.org/2000/svg">
<path d="M33.519 19.4546C31.2121 16.5214 25.1336 16.0051 23.5649 19.7303C22.8347 18.7431 21.8303 18.0013 20.6814 17.6008C19.4082 17.1273 18.027 17.0416 16.7067 17.3542C15.3864 17.6668 14.1843 18.364 13.2475 19.3607C13.2475 19.2199 13.2764 19.085 13.2764 18.9383C13.2764 16.4686 13.2072 13.5941 14.0895 11.224C14.8283 11.8511 15.7694 12.1772 16.7309 12.1392C18.6917 12.0453 20.5545 11.8869 21.3446 9.79263C22.0828 7.79805 21.2235 5.49843 19.8624 4.0201C18.9051 2.97588 18.5418 2.94655 17.1519 3.02868C15.7805 3.07931 14.4132 3.21252 13.0572 3.42759C10.7907 3.84411 8.91642 7.37567 7.82644 9.26465C4.58531 14.8905 1.60371 21.062 1.12504 27.6499C1.12407 27.7218 1.14167 27.7927 1.17608 27.8555C1.21049 27.9183 1.2605 27.9708 1.32112 28.0078C9.89107 33.7451 22.5557 35.0064 31.5178 29.3101C34.7705 27.2217 36.0911 22.7339 33.519 19.4546ZM30.8373 28.7117C26.1486 31.4983 20.3873 32.4252 15.0296 31.95C12.2944 31.7078 9.60589 31.0779 7.04212 30.0786C5.64404 29.5296 4.29365 28.8624 3.00513 28.084C1.36726 27.0985 2.15159 25.0628 2.53799 23.4379C3.34578 20.3029 4.5069 17.2734 5.99827 14.4095C7.39968 11.5877 8.82416 8.71321 10.8081 6.26693C11.3127 5.52094 11.9697 4.8946 12.7343 4.43075C13.7493 3.92037 15.0411 3.93797 16.1657 3.84411C17.1807 3.77958 18.213 3.62118 19.0896 4.32515C19.8405 5.02005 20.3706 5.92691 20.6122 6.92983C20.9121 8.10311 20.8198 9.79849 19.7644 10.5905C19.0204 11.1478 17.9824 11.1771 17.0769 11.2534C16.8011 11.3049 16.5211 11.3304 16.2407 11.3296C15.5198 11.2358 14.2453 10.4262 14.8912 9.50518C15.168 9.10626 16.3387 8.91854 16.7828 8.91854C16.8808 8.90656 16.9711 8.85845 17.0366 8.78332C17.1021 8.70819 17.1383 8.61125 17.1383 8.51082C17.1383 8.4104 17.1021 8.31345 17.0366 8.23832C16.9711 8.16319 16.8808 8.11509 16.7828 8.10311C15.8139 8.10311 13.755 8.65455 13.6166 9.89822C13.6051 9.99957 13.6051 10.1019 13.6166 10.2033C12.7689 12.0453 12.6189 14.1455 12.5324 16.1518C12.4863 17.2488 12.5324 18.3634 12.4747 19.4546C12.3248 21.4902 10.9349 23.1093 9.56235 24.5173C9.19325 24.8927 9.7642 25.4735 10.1391 25.1039C11.477 23.737 12.5613 22.4054 13.0226 20.7334C13.059 20.7133 13.092 20.6876 13.1207 20.6572C15.0238 18.3106 17.7344 17.2547 20.6179 18.4162C21.6848 18.8445 22.8844 19.6834 23.2766 20.8508C23.3977 21.1969 23.9744 21.279 24.0551 20.8508C24.9029 16.2222 31.835 17.4952 33.4556 20.9036C34.9089 24.0186 33.5767 27.1102 30.8373 28.7117Z" fill="white"/>
<path d="M22.1932 24.8785C21.6641 25.5415 21.0256 26.051 20.3226 26.3713C19.6196 26.6916 18.8692 26.8148 18.1242 26.7323C16.5224 26.6125 15.0443 26.3235 13.6955 25.1816C13.2796 24.8221 12.8861 25.675 13.302 26.0274C14.8926 27.3808 16.7416 27.6769 18.63 27.7474C20.3161 27.8038 21.5076 26.9438 22.7497 25.5763C23.1262 25.1534 22.5698 24.4626 22.1932 24.8785Z" fill="white"/>
<path d="M14.7123 21.6279C15.1828 21.2238 15.862 20.9005 16.6685 20.6968C16.7661 20.6627 16.8356 20.61 16.8626 20.5495C16.8896 20.489 16.8721 20.4253 16.8136 20.3714C16.7552 20.3176 16.6603 20.2777 16.5484 20.26C16.4365 20.2424 16.3161 20.2482 16.212 20.2763C15.2694 20.523 14.4779 20.9074 13.9299 21.3847C13.6625 21.6592 14.445 21.9059 14.7123 21.6279Z" fill="white"/>
</svg>
