<svg width="20" height="32" viewBox="0 0 20 32" fill="none" xmlns="http://www.w3.org/2000/svg">
<path d="M17.8637 19.6106C18.4805 16.4731 18.8426 13.2892 18.9463 10.0912C18.9765 7.65357 18.8103 4.91321 17.189 2.96314C16.5686 2.23759 15.8068 1.65164 14.9521 1.24257C14.0973 0.833508 13.1684 0.610297 12.2244 0.587142C9.36947 -0.274994 7.13388 0.587143 4.84291 2.36786C3.85949 3.09542 3.04834 4.0381 2.46895 5.12677C1.88956 6.21545 1.55662 7.4225 1.49456 8.6594C1.20252 12.2516 1.66575 16.0132 2.24983 19.5747C1.46435 19.6311 0.552993 19.7902 0.306273 20.4419C0.204647 20.9674 0.241125 21.5109 0.41201 22.0174C0.633555 22.5305 1.11693 22.4946 1.36365 22.8846C1.74128 23.4799 1.36365 25.1939 1.31833 25.8097C1.19505 26.723 1.17478 27.6476 1.25791 28.5655C1.38379 29.6996 1.51973 31.3418 2.8339 31.6446C6.74618 32.5939 5.46223 26.872 4.94361 24.9322C4.83787 24.5371 4.67675 24.1471 4.60626 23.7416C4.36457 22.2637 4.57101 22.7153 5.0141 21.8583C5.25157 21.4583 5.32909 20.9806 5.23061 20.524C5.03424 19.2052 4.16317 19.4977 3.01516 19.5233H2.94971C2.57701 17.3056 2.32988 15.0679 2.20954 12.8213C2.10884 10.8199 1.96282 8.61835 2.53179 6.66315C2.54889 6.60561 2.56906 6.54908 2.59221 6.4938C2.04786 8.64092 2.22514 10.912 3.09572 12.9444C4.89326 17.0498 9.58095 17.8812 13.3875 16.2236C15.1951 15.4385 16.9121 14.3197 17.5465 12.3389C18.2564 10.163 18.3622 7.25843 17.4559 5.15441C17.0141 4.14895 16.3709 3.24874 15.5677 2.51155C16.3489 3.03203 16.9784 3.75695 17.3904 4.61044C18.4276 6.80683 18.3219 9.4189 18.1809 11.7949C17.9941 14.3906 17.6578 16.9729 17.1739 19.5285V19.5285C16.2223 19.4412 15.1901 19.4002 14.888 20.4111C14.7233 20.9106 14.7233 21.4512 14.888 21.9507C15.2354 22.6794 15.5627 22.3304 15.5929 23.2285C15.6583 25.1734 12.9293 31.3161 16.4891 31.6497C19.9382 31.9781 19.1225 27.0311 18.8254 24.8347C18.7398 24.2086 18.5233 23.2952 18.8758 22.7102C19.0117 22.4792 19.3289 22.3715 19.4649 22.1405C19.6841 21.7074 19.78 21.2203 19.7418 20.7344C19.6612 19.6208 18.7851 19.6978 17.8637 19.6106ZM4.48038 20.2828C4.98389 20.6934 4.31422 21.5247 4.14303 21.8737C3.7956 22.5613 3.68987 22.5459 3.82078 23.4132C4.05743 24.9527 4.53577 26.4102 4.73717 27.9753C4.8278 28.6938 5.16516 29.715 4.70193 30.3821C4.49121 30.6706 4.18265 30.8688 3.83637 30.9381C3.4901 31.0073 3.13092 30.9427 2.82886 30.7568C1.64058 30.0948 1.82184 27.611 1.95275 26.3794C2.05346 25.3017 2.42102 23.9161 2.06856 22.8487C1.86716 22.2329 1.7866 22.5305 1.38882 22.0584C0.170324 20.6061 1.89233 20.3239 3.01516 20.2623C3.35755 20.252 4.19841 20.057 4.48038 20.2828ZM10.6484 1.33125C11.4082 1.42922 12.1458 1.66012 12.8286 2.01377C15.0592 3.15815 16.328 4.98506 16.1467 7.59713C15.9806 9.96287 14.9031 12.4415 12.5215 13.1959C10.5074 13.8271 7.33025 13.745 6.10169 11.7179C5.09466 10.0193 5.17019 7.33027 5.80461 5.52902C6.16479 4.44872 6.80531 3.488 7.65815 2.7489C8.511 2.0098 9.54432 1.51991 10.6484 1.33125ZM17.0027 11.6871C15.9957 15.6181 11.0361 16.8189 7.59208 16.0543C3.56399 15.1716 2.33542 10.1373 3.3072 6.51946C3.62368 5.28587 4.26152 4.16244 5.15321 3.26809C6.0449 2.37374 7.15725 1.74175 8.37252 1.43902C7.41413 1.94238 6.59257 2.67922 5.98084 3.58409C3.67476 7.0121 4.03226 13.2831 8.74512 14.1093C10.8498 14.4737 13.3422 14.1555 14.898 12.5698C16.4539 10.9841 17.0581 8.3207 16.7963 6.12431C16.7641 5.88583 16.7187 5.6494 16.6603 5.41613C17.4598 7.40851 17.5804 9.61665 17.0027 11.6871V11.6871ZM18.483 22.0892C17.9795 22.8436 17.904 22.9668 17.9795 24.0342C18.0903 25.3479 19.2685 31.4752 16.5747 30.9518C14.0068 30.4386 16.187 24.9168 16.2575 23.2541C16.3119 22.8579 16.2282 22.4547 16.0209 22.1149C15.8094 21.6787 15.0138 20.9654 15.6231 20.3649C15.9 20.0878 17.2444 20.2828 17.6371 20.3188C19.0721 20.5189 19.2635 20.9859 18.483 22.0892Z" fill="white"/>
</svg>
