<svg width="30" height="30" viewBox="0 0 30 30" fill="none" xmlns="http://www.w3.org/2000/svg">
<path d="M30 5.58153C29.9884 5.48522 29.942 5.39649 29.8695 5.33212C29.7969 5.26775 29.7033 5.2322 29.6064 5.2322C29.5094 5.2322 29.4158 5.26775 29.3433 5.33212C29.2708 5.39649 29.2244 5.48522 29.2128 5.58153C29.1222 8.83402 27.5534 10.4206 24.4215 10.6813C21.2895 10.9419 15.9715 11.6955 15.3995 7.55909C15.3931 7.49341 15.3652 7.43168 15.3202 7.38343C15.3825 6.62981 15.3542 5.84785 15.3599 5.14522C15.3483 5.04891 15.3019 4.96018 15.2293 4.89581C15.1568 4.83144 15.0632 4.7959 14.9663 4.7959C14.8693 4.7959 14.7757 4.83144 14.7032 4.89581C14.6307 4.96018 14.5842 5.04891 14.5726 5.14522C14.5726 6.50515 14.7652 8.43171 13.7401 9.46865C12.5168 10.7039 10.1042 10.9476 8.45608 10.9986C6.94959 11.0439 4.92204 11.1289 3.57413 10.4319C1.83544 9.54799 0.88398 7.47976 0.787701 5.63253C0.787701 5.12256 -0.0221874 5.12256 0.000466543 5.63253C0.0318471 6.54545 0.248919 7.44239 0.638422 8.26855C1.02792 9.09472 1.58168 9.83276 2.26586 10.4376C2.86053 12.2792 3.0361 14.1774 3.48351 16.053C3.87996 17.7245 4.49729 19.2941 4.68419 21.0167C4.87101 22.4878 4.92219 23.973 4.8371 25.4535C4.72383 26.8701 4.16315 28.213 3.99324 29.6239C3.93094 30.1282 4.72382 30.1225 4.78046 29.6239C4.95603 28.1507 5.55636 26.7624 5.63565 25.2721C5.70371 23.684 5.62978 22.093 5.41477 20.5181C5.17783 19.1737 4.84473 17.8482 4.418 16.5516C3.93661 14.7724 3.74405 12.9478 3.2853 11.1629C4.82011 11.9279 6.81932 11.8485 8.46173 11.7975C10.3647 11.7409 12.8849 11.4462 14.3008 10.041C14.6003 9.74361 14.8338 9.38641 14.9861 8.99268C16.4246 12.3415 21.5048 11.8259 24.716 11.4859C25.4634 11.4181 26.1965 11.2385 26.8907 10.9532C26.4314 12.363 26.1034 13.8122 25.911 15.2823C25.5938 16.9823 24.9085 18.5462 24.665 20.2404C24.4312 21.846 24.344 23.4695 24.4045 25.0908C24.4611 26.6547 25.0558 28.0997 25.237 29.6239C25.2936 30.1225 26.0865 30.1282 26.0242 29.6239C25.8657 28.2696 25.3559 26.9891 25.2144 25.6575C25.1048 24.1171 25.1541 22.5696 25.3616 21.0394C25.5315 19.4414 26.0809 17.9909 26.466 16.4439C26.9757 14.3701 26.97 12.2452 28.0348 10.3413C28.0501 10.3127 28.0615 10.2822 28.0687 10.2506C29.3317 9.259 29.9434 7.68941 30 5.58153Z" fill="white"/>
<path d="M21.7595 14.852C21.0629 16.0646 15.9374 15.8323 15.3314 14.6593C15.3111 14.621 15.2843 14.5865 15.2521 14.5573C15.3576 13.7201 15.3576 12.873 15.2521 12.0358C15.2238 11.5258 14.4309 11.5258 14.4592 12.0358C14.5612 13.7357 14.9236 15.3223 12.6356 15.532C11.2707 15.6566 9.09025 16.0079 8.0425 14.9653C7.6857 14.6027 7.13068 15.1636 7.47615 15.532C8.84672 16.9202 11.5992 16.5916 13.3435 16.2516C13.9392 16.176 14.4828 15.8736 14.8614 15.4073C15.6826 16.3536 17.4156 16.3252 18.5426 16.3422C19.6697 16.3592 21.7085 16.4952 22.4108 15.2656C22.4399 15.1813 22.4397 15.0895 22.4103 15.0053C22.3808 14.921 22.3238 14.8491 22.2485 14.8013C22.1732 14.7535 22.0839 14.7324 21.9952 14.7416C21.9065 14.7508 21.8234 14.7897 21.7595 14.852V14.852Z" fill="white"/>
<path d="M14.3575 20.314C14.1594 20.5367 13.9158 20.7142 13.6432 20.8344C13.3706 20.9547 13.0753 21.0149 12.7774 21.011C11.4691 21.096 9.32263 21.2829 9.24334 19.464C9.24334 18.9597 8.43347 18.9597 8.45046 19.464C8.4901 20.3027 8.63168 21.0733 9.45289 21.4586C10.4723 21.9402 11.7183 21.8722 12.7774 21.8043C13.5702 21.7533 14.4764 21.8043 14.9295 21.011C15.0666 21.2025 15.2497 21.3564 15.4619 21.4586C16.3624 21.9119 17.5857 21.8496 18.5598 21.8722C20.1456 21.9176 21.2783 21.2489 21.5161 19.6057C21.5898 19.1071 20.8308 18.8917 20.7572 19.3904C20.5647 20.7446 19.7605 21.147 18.5598 21.0903C17.3591 21.0336 15.728 21.2659 15.258 19.7927C15.2923 19.289 15.2923 18.7835 15.258 18.2798C15.2297 17.7755 14.4424 17.7698 14.4708 18.2798C14.4962 18.6779 14.4962 19.0772 14.4708 19.4754C14.4806 19.7593 14.4423 20.0429 14.3575 20.314Z" fill="white"/>
<path d="M25.7018 9.50325C25.7981 9.49168 25.8869 9.4452 25.9513 9.3726C26.0156 9.30001 26.0512 9.20634 26.0512 9.1093C26.0512 9.01226 26.0156 8.91859 25.9513 8.84599C25.8869 8.7734 25.7981 8.72691 25.7018 8.71533C25.6054 8.72691 25.5166 8.7734 25.4522 8.84599C25.3879 8.91859 25.3523 9.01226 25.3523 9.1093C25.3523 9.20634 25.3879 9.30001 25.4522 9.3726C25.5166 9.4452 25.6054 9.49168 25.7018 9.50325V9.50325Z" fill="white"/>
<path d="M4.36728 9.50325C4.46362 9.49168 4.55239 9.4452 4.61678 9.3726C4.68117 9.30001 4.71671 9.20634 4.71671 9.1093C4.71671 9.01226 4.68117 8.91859 4.61678 8.84599C4.55239 8.7734 4.46362 8.72691 4.36728 8.71533C4.27093 8.72691 4.18217 8.7734 4.11778 8.84599C4.05338 8.91859 4.01782 9.01226 4.01782 9.1093C4.01782 9.20634 4.05338 9.30001 4.11778 9.3726C4.18217 9.4452 4.27093 9.49168 4.36728 9.50325Z" fill="white"/>
<path d="M20.7854 24.768C20.7854 25.5557 20.7854 26.0543 19.9472 26.2866C19.5274 26.3808 19.0954 26.4076 18.6672 26.366C17.4892 26.3206 15.7052 26.6039 15.4277 25.0627C15.457 24.4961 15.4475 23.9281 15.3994 23.3628C15.3994 22.8585 14.5952 22.8528 14.6065 23.3628C14.7078 24.0217 14.6435 24.6955 14.4196 25.3233C14.1365 25.9183 13.6324 26.009 13.0094 26.111C12.323 26.2083 11.6284 26.2349 10.9366 26.1903C9.80386 26.1336 9.61698 25.6237 9.4584 24.6434C9.37345 24.1447 8.61454 24.3544 8.69949 24.853C8.81843 25.5897 8.93735 26.3886 9.66228 26.7513C10.5684 27.2046 12.0353 27.0459 12.9981 26.9043C13.6381 26.8136 14.5442 26.6549 15.0143 26.1393C15.7732 27.2046 17.4722 27.0912 18.7805 27.1422C19.4815 27.2076 20.1877 27.0986 20.8364 26.8249C21.5839 26.4169 21.5443 25.5103 21.55 24.751C21.5252 24.6677 21.4737 24.5948 21.4034 24.5436C21.3332 24.4924 21.2481 24.4657 21.1612 24.4677C21.0743 24.4696 20.9904 24.5 20.9225 24.5543C20.8546 24.6086 20.8065 24.6837 20.7854 24.768V24.768Z" fill="white"/>
<path d="M7.41967 0.918508C9.45286 0.918508 11.1972 0.686187 12.8396 2.05178C13.2304 2.37476 13.7911 1.81946 13.406 1.48514C11.5484 -0.0334408 9.74737 0.136547 7.42534 0.136547C7.33298 0.151633 7.24893 0.198919 7.18807 0.270036C7.12721 0.341152 7.09346 0.43152 7.09278 0.525142C7.09211 0.618763 7.12454 0.709605 7.18437 0.781596C7.2442 0.853588 7.32754 0.902085 7.41967 0.918508V0.918508Z" fill="white"/>
<path d="M17.042 2.02882C18.3899 0.578234 20.7403 0.861547 22.5696 0.793551C23.0737 0.793551 23.0737 -0.0167353 22.5696 0.000263777C20.4854 0.0795928 18.0388 -0.186731 16.487 1.47351C16.1415 1.84749 16.6966 2.4028 17.042 2.02882Z" fill="white"/>
</svg>
